G04 #@! TF.FileFunction,Copper,L1,Top,Signal*
%FSLAX46Y46*%
G04 Gerber Fmt 4.6, Leading zero omitted, Abs format (unit mm)*
G04 Created by KiCad (PCBNEW 4.0.1-stable) date 29-Sep-16 12:15:53 PM*
%MOMM*%
G01*
G04 APERTURE LIST*
%ADD10C,0.150000*%
%ADD11C,0.100000*%
%ADD12C,2.032000*%
%ADD13O,2.032000X2.032000*%
%ADD14R,1.220000X0.910000*%
%ADD15R,0.800000X0.800000*%
%ADD16O,0.850000X0.300000*%
%ADD17O,0.300000X0.850000*%
%ADD18R,1.675000X1.675000*%
%ADD19R,0.750000X0.800000*%
%ADD20R,0.800000X0.750000*%
%ADD21R,1.600000X1.000000*%
%ADD22R,0.797560X0.797560*%
%ADD23R,1.060000X0.650000*%
%ADD24R,0.500000X0.900000*%
%ADD25R,0.900000X0.500000*%
%ADD26R,1.000760X1.000760*%
%ADD27R,0.400000X1.600000*%
%ADD28C,1.500000*%
%ADD29O,2.200000X2.500000*%
%ADD30O,2.032000X1.727200*%
%ADD31R,2.029460X2.651760*%
%ADD32C,0.500000*%
%ADD33C,0.130000*%
%ADD34C,0.161000*%
%ADD35C,0.254000*%
G04 APERTURE END LIST*
D10*
D11*
X169748200Y-123545600D02*
X169748200Y-90500200D01*
X151648400Y-123076200D02*
G75*
G03X153398400Y-125326200I2000000J-250000D01*
G01*
X154923800Y-125326200D02*
X153423800Y-125326200D01*
X155423800Y-125826200D02*
X154923800Y-125326200D01*
X165449200Y-125826200D02*
X155449200Y-125826200D01*
X165974600Y-125326200D02*
X165474600Y-125826200D01*
X167474600Y-125326200D02*
X165974600Y-125326200D01*
X151650700Y-90487500D02*
X151650700Y-123075700D01*
X151648400Y-90500000D02*
X157148400Y-90500000D01*
X157173800Y-90500000D02*
X157923800Y-91250000D01*
X164449200Y-90500000D02*
X163699200Y-91250000D01*
X164439600Y-90500200D02*
X169748200Y-90500200D01*
X163699200Y-91250000D02*
X157949200Y-91250000D01*
X167500000Y-125326200D02*
G75*
G03X169750000Y-123576200I250000J2000000D01*
G01*
D12*
X165455600Y-116154200D03*
D13*
X165455600Y-113614200D03*
D14*
X156489400Y-99990400D03*
X156489400Y-103260400D03*
D12*
X165455600Y-105689400D03*
D13*
X165455600Y-103149400D03*
D15*
X153746200Y-91338400D03*
X152496200Y-91338400D03*
D10*
G36*
X158942499Y-104429165D02*
X159366763Y-104004901D01*
X160215291Y-104853429D01*
X159791027Y-105277693D01*
X158942499Y-104429165D01*
X158942499Y-104429165D01*
G37*
G36*
X158376814Y-104994851D02*
X158801078Y-104570587D01*
X159649606Y-105419115D01*
X159225342Y-105843379D01*
X158376814Y-104994851D01*
X158376814Y-104994851D01*
G37*
G36*
X157811128Y-105560536D02*
X158235392Y-105136272D01*
X159083920Y-105984800D01*
X158659656Y-106409064D01*
X157811128Y-105560536D01*
X157811128Y-105560536D01*
G37*
G36*
X157245443Y-106126221D02*
X157669707Y-105701957D01*
X158518235Y-106550485D01*
X158093971Y-106974749D01*
X157245443Y-106126221D01*
X157245443Y-106126221D01*
G37*
G36*
X156679757Y-106691907D02*
X157104021Y-106267643D01*
X157952549Y-107116171D01*
X157528285Y-107540435D01*
X156679757Y-106691907D01*
X156679757Y-106691907D01*
G37*
G36*
X156114072Y-107257592D02*
X156538336Y-106833328D01*
X157386864Y-107681856D01*
X156962600Y-108106120D01*
X156114072Y-107257592D01*
X156114072Y-107257592D01*
G37*
G36*
X155548387Y-107823278D02*
X155972651Y-107399014D01*
X156821179Y-108247542D01*
X156396915Y-108671806D01*
X155548387Y-107823278D01*
X155548387Y-107823278D01*
G37*
G36*
X154982701Y-108388963D02*
X155406965Y-107964699D01*
X156255493Y-108813227D01*
X155831229Y-109237491D01*
X154982701Y-108388963D01*
X154982701Y-108388963D01*
G37*
G36*
X155406965Y-111288101D02*
X154982701Y-110863837D01*
X155831229Y-110015309D01*
X156255493Y-110439573D01*
X155406965Y-111288101D01*
X155406965Y-111288101D01*
G37*
G36*
X155972651Y-111853786D02*
X155548387Y-111429522D01*
X156396915Y-110580994D01*
X156821179Y-111005258D01*
X155972651Y-111853786D01*
X155972651Y-111853786D01*
G37*
G36*
X156538336Y-112419472D02*
X156114072Y-111995208D01*
X156962600Y-111146680D01*
X157386864Y-111570944D01*
X156538336Y-112419472D01*
X156538336Y-112419472D01*
G37*
G36*
X157104021Y-112985157D02*
X156679757Y-112560893D01*
X157528285Y-111712365D01*
X157952549Y-112136629D01*
X157104021Y-112985157D01*
X157104021Y-112985157D01*
G37*
G36*
X157669707Y-113550843D02*
X157245443Y-113126579D01*
X158093971Y-112278051D01*
X158518235Y-112702315D01*
X157669707Y-113550843D01*
X157669707Y-113550843D01*
G37*
G36*
X158235392Y-114116528D02*
X157811128Y-113692264D01*
X158659656Y-112843736D01*
X159083920Y-113268000D01*
X158235392Y-114116528D01*
X158235392Y-114116528D01*
G37*
G36*
X158801078Y-114682213D02*
X158376814Y-114257949D01*
X159225342Y-113409421D01*
X159649606Y-113833685D01*
X158801078Y-114682213D01*
X158801078Y-114682213D01*
G37*
G36*
X159366763Y-115247899D02*
X158942499Y-114823635D01*
X159791027Y-113975107D01*
X160215291Y-114399371D01*
X159366763Y-115247899D01*
X159366763Y-115247899D01*
G37*
G36*
X160993109Y-114399371D02*
X161417373Y-113975107D01*
X162265901Y-114823635D01*
X161841637Y-115247899D01*
X160993109Y-114399371D01*
X160993109Y-114399371D01*
G37*
G36*
X161558794Y-113833685D02*
X161983058Y-113409421D01*
X162831586Y-114257949D01*
X162407322Y-114682213D01*
X161558794Y-113833685D01*
X161558794Y-113833685D01*
G37*
G36*
X162124480Y-113268000D02*
X162548744Y-112843736D01*
X163397272Y-113692264D01*
X162973008Y-114116528D01*
X162124480Y-113268000D01*
X162124480Y-113268000D01*
G37*
G36*
X162690165Y-112702315D02*
X163114429Y-112278051D01*
X163962957Y-113126579D01*
X163538693Y-113550843D01*
X162690165Y-112702315D01*
X162690165Y-112702315D01*
G37*
G36*
X163255851Y-112136629D02*
X163680115Y-111712365D01*
X164528643Y-112560893D01*
X164104379Y-112985157D01*
X163255851Y-112136629D01*
X163255851Y-112136629D01*
G37*
G36*
X163821536Y-111570944D02*
X164245800Y-111146680D01*
X165094328Y-111995208D01*
X164670064Y-112419472D01*
X163821536Y-111570944D01*
X163821536Y-111570944D01*
G37*
G36*
X164387221Y-111005258D02*
X164811485Y-110580994D01*
X165660013Y-111429522D01*
X165235749Y-111853786D01*
X164387221Y-111005258D01*
X164387221Y-111005258D01*
G37*
G36*
X164952907Y-110439573D02*
X165377171Y-110015309D01*
X166225699Y-110863837D01*
X165801435Y-111288101D01*
X164952907Y-110439573D01*
X164952907Y-110439573D01*
G37*
G36*
X165377171Y-109237491D02*
X164952907Y-108813227D01*
X165801435Y-107964699D01*
X166225699Y-108388963D01*
X165377171Y-109237491D01*
X165377171Y-109237491D01*
G37*
G36*
X164811485Y-108671806D02*
X164387221Y-108247542D01*
X165235749Y-107399014D01*
X165660013Y-107823278D01*
X164811485Y-108671806D01*
X164811485Y-108671806D01*
G37*
G36*
X164245800Y-108106120D02*
X163821536Y-107681856D01*
X164670064Y-106833328D01*
X165094328Y-107257592D01*
X164245800Y-108106120D01*
X164245800Y-108106120D01*
G37*
G36*
X163680115Y-107540435D02*
X163255851Y-107116171D01*
X164104379Y-106267643D01*
X164528643Y-106691907D01*
X163680115Y-107540435D01*
X163680115Y-107540435D01*
G37*
G36*
X163114429Y-106974749D02*
X162690165Y-106550485D01*
X163538693Y-105701957D01*
X163962957Y-106126221D01*
X163114429Y-106974749D01*
X163114429Y-106974749D01*
G37*
G36*
X162548744Y-106409064D02*
X162124480Y-105984800D01*
X162973008Y-105136272D01*
X163397272Y-105560536D01*
X162548744Y-106409064D01*
X162548744Y-106409064D01*
G37*
G36*
X161983058Y-105843379D02*
X161558794Y-105419115D01*
X162407322Y-104570587D01*
X162831586Y-104994851D01*
X161983058Y-105843379D01*
X161983058Y-105843379D01*
G37*
G36*
X161417373Y-105277693D02*
X160993109Y-104853429D01*
X161841637Y-104004901D01*
X162265901Y-104429165D01*
X161417373Y-105277693D01*
X161417373Y-105277693D01*
G37*
D16*
X163486000Y-101830000D03*
X163486000Y-101330000D03*
X163486000Y-100830000D03*
X163486000Y-100330000D03*
X163486000Y-99830000D03*
X163486000Y-99330000D03*
X163486000Y-98830000D03*
D17*
X162536000Y-97880000D03*
X162036000Y-97880000D03*
X161536000Y-97880000D03*
X161036000Y-97880000D03*
X160536000Y-97880000D03*
X160036000Y-97880000D03*
X159536000Y-97880000D03*
D16*
X158586000Y-98830000D03*
X158586000Y-99330000D03*
X158586000Y-99830000D03*
X158586000Y-100330000D03*
X158586000Y-100830000D03*
X158586000Y-101330000D03*
X158586000Y-101830000D03*
D17*
X159536000Y-102780000D03*
X160036000Y-102780000D03*
X160536000Y-102780000D03*
X161036000Y-102780000D03*
X161536000Y-102780000D03*
X162036000Y-102780000D03*
X162536000Y-102780000D03*
D18*
X160198500Y-99492500D03*
X160198500Y-101167500D03*
X161873500Y-99492500D03*
X161873500Y-101167500D03*
D19*
X165125400Y-96736600D03*
X165125400Y-95236600D03*
X165328600Y-120865200D03*
X165328600Y-122365200D03*
D20*
X162216400Y-119126000D03*
X163716400Y-119126000D03*
D19*
X165277800Y-99707000D03*
X165277800Y-101207000D03*
D20*
X168872600Y-92125800D03*
X167372600Y-92125800D03*
D21*
X155600400Y-121156600D03*
X155600400Y-124156600D03*
X160324800Y-119305200D03*
X160324800Y-116305200D03*
D20*
X156552200Y-116230400D03*
X158052200Y-116230400D03*
D22*
X163423600Y-115963700D03*
X163423600Y-117462300D03*
X152336500Y-92710000D03*
X153835100Y-92710000D03*
D23*
X155973600Y-117668000D03*
X155973600Y-118618000D03*
X155973600Y-119568000D03*
X158173600Y-119568000D03*
X158173600Y-117668000D03*
D24*
X166535800Y-124104400D03*
X165035800Y-124104400D03*
D25*
X165303200Y-119545800D03*
X165303200Y-118045800D03*
X155194000Y-91985400D03*
X155194000Y-93485400D03*
D26*
X157579060Y-120985280D03*
X163578540Y-124683520D03*
X157579060Y-124683520D03*
X163578540Y-120985280D03*
D27*
X162175000Y-95675000D03*
X161525000Y-95675000D03*
X160875000Y-95675000D03*
X160225000Y-95675000D03*
X159575000Y-95675000D03*
D28*
X163300000Y-95575000D03*
D29*
X164500000Y-92925000D03*
D28*
X158450000Y-95575000D03*
D29*
X157250000Y-92925000D03*
D10*
G36*
X155289365Y-106875664D02*
X154370126Y-105956425D01*
X154652969Y-105673582D01*
X155572208Y-106592821D01*
X155289365Y-106875664D01*
X155289365Y-106875664D01*
G37*
G36*
X156137893Y-106027136D02*
X155218654Y-105107897D01*
X155501497Y-104825054D01*
X156420736Y-105744293D01*
X156137893Y-106027136D01*
X156137893Y-106027136D01*
G37*
G36*
X156986421Y-105178608D02*
X156067182Y-104259369D01*
X156350025Y-103976526D01*
X157269264Y-104895765D01*
X156986421Y-105178608D01*
X156986421Y-105178608D01*
G37*
D12*
X153050000Y-122425000D03*
D30*
X153050000Y-119885000D03*
X153050000Y-117345000D03*
X153050000Y-114805000D03*
X153050000Y-112265000D03*
X153050000Y-109725000D03*
X153050000Y-107185000D03*
X153050000Y-104645000D03*
X153050000Y-102105000D03*
X153050000Y-99565000D03*
X153050000Y-97025000D03*
X153050000Y-94485000D03*
D12*
X168300000Y-94500000D03*
D30*
X168300000Y-97040000D03*
X168300000Y-99580000D03*
X168300000Y-102120000D03*
X168300000Y-104660000D03*
X168300000Y-107200000D03*
X168300000Y-109740000D03*
X168300000Y-112280000D03*
X168300000Y-114820000D03*
X168300000Y-117360000D03*
X168300000Y-119900000D03*
X168300000Y-122440000D03*
D31*
X156413200Y-94790260D03*
X156413200Y-98960940D03*
D32*
X157911800Y-118491000D03*
X156540200Y-116306600D03*
X162661600Y-110109000D03*
X158572200Y-106984800D03*
X166979600Y-103428800D03*
X163347400Y-97917000D03*
X159791400Y-96977200D03*
X158953200Y-121615200D03*
X159131000Y-120523000D03*
X156387800Y-115366800D03*
X158800800Y-116408200D03*
X160324800Y-116255800D03*
X160350200Y-117576600D03*
X159588200Y-94335600D03*
X164033200Y-94564200D03*
X161823400Y-111429800D03*
X164998400Y-97840800D03*
X165989000Y-95859600D03*
X157200600Y-115011200D03*
X157556200Y-108254800D03*
X163245800Y-103530400D03*
X159867600Y-107391200D03*
X158343600Y-109067600D03*
X164566600Y-120878600D03*
X164007800Y-113944400D03*
X164007800Y-104775000D03*
X166928800Y-94030800D03*
X160604200Y-113969800D03*
X163576000Y-123469400D03*
X162763200Y-94513400D03*
X164363400Y-101498400D03*
X166420800Y-92125800D03*
X155244800Y-103428800D03*
X153898600Y-105892600D03*
X154406600Y-108991400D03*
X154990800Y-118211600D03*
X166116000Y-94538800D03*
X163474400Y-114935000D03*
X154940000Y-99085400D03*
X154965400Y-104546400D03*
X160832800Y-105435400D03*
X157988000Y-104724200D03*
X163144200Y-107696000D03*
X165150800Y-98729800D03*
X160858200Y-96977200D03*
X164388800Y-99847400D03*
X161518600Y-96977200D03*
X158902400Y-93218000D03*
X157276800Y-97409000D03*
D33*
X163107200Y-97880000D02*
X163486000Y-98258800D01*
X163486000Y-98258800D02*
X163486000Y-98830000D01*
X162536000Y-97880000D02*
X163107200Y-97880000D01*
X164273800Y-96736600D02*
X163130400Y-97880000D01*
X163130400Y-97880000D02*
X163107200Y-97880000D01*
X165125400Y-96736600D02*
X164273800Y-96736600D01*
X152496200Y-92550300D02*
X152336500Y-92710000D01*
X152496200Y-91338400D02*
X152496200Y-92550300D01*
X159095400Y-117668000D02*
X160324800Y-118897400D01*
X160324800Y-118897400D02*
X160324800Y-119305200D01*
X158173600Y-117668000D02*
X159095400Y-117668000D01*
X163716400Y-119163400D02*
X163716400Y-119126000D01*
X160756600Y-120218200D02*
X162661600Y-120218200D01*
X162661600Y-120218200D02*
X163716400Y-119163400D01*
X160324800Y-119786400D02*
X160756600Y-120218200D01*
X160324800Y-119305200D02*
X160324800Y-119786400D01*
X156552200Y-116294600D02*
X156552200Y-116230400D01*
X158173600Y-118203800D02*
X157911800Y-118465600D01*
X157911800Y-118465600D02*
X157911800Y-118491000D01*
X156540200Y-116306600D02*
X156552200Y-116294600D01*
X158173600Y-117668000D02*
X158173600Y-118203800D01*
X166813800Y-102120000D02*
X166674800Y-101981000D01*
X166674800Y-101981000D02*
X166674800Y-98780600D01*
X166674800Y-98780600D02*
X165125400Y-97231200D01*
X165125400Y-97231200D02*
X165125400Y-96736600D01*
X168300000Y-102120000D02*
X166813800Y-102120000D01*
X161366200Y-113207800D02*
X161366200Y-110566200D01*
X161366200Y-110566200D02*
X161823400Y-110109000D01*
X161823400Y-110109000D02*
X162661600Y-110109000D01*
X162195190Y-114036790D02*
X161366200Y-113207800D01*
X162195190Y-114045817D02*
X162195190Y-114036790D01*
X157925753Y-106338353D02*
X157881839Y-106338353D01*
X158572200Y-106984800D02*
X157925753Y-106338353D01*
X167120000Y-102120000D02*
X166979600Y-102260400D01*
X166979600Y-102260400D02*
X166979600Y-103428800D01*
X168300000Y-102120000D02*
X167120000Y-102120000D01*
D34*
X163486000Y-98055600D02*
X163347400Y-97917000D01*
X159791400Y-96977200D02*
X159715200Y-96901000D01*
X159715200Y-96901000D02*
X155778200Y-96901000D01*
X155778200Y-96901000D02*
X155727400Y-96951800D01*
X155727400Y-96951800D02*
X154914600Y-96951800D01*
X154914600Y-96951800D02*
X154711400Y-96748600D01*
X154711400Y-96748600D02*
X154711400Y-94284800D01*
X154711400Y-94284800D02*
X154000200Y-93573600D01*
X154000200Y-93573600D02*
X154000200Y-93522800D01*
X154000200Y-93522800D02*
X153847800Y-93370400D01*
X153847800Y-93370400D02*
X152527000Y-93370400D01*
X152527000Y-93370400D02*
X152336500Y-93179900D01*
X152336500Y-93179900D02*
X152336500Y-92710000D01*
X163486000Y-98830000D02*
X163486000Y-98055600D01*
D33*
X160324800Y-119329200D02*
X160324800Y-119305200D01*
X166065200Y-124104400D02*
X165735000Y-123774200D01*
X165735000Y-123774200D02*
X165735000Y-123444000D01*
X165735000Y-123444000D02*
X165455600Y-123164600D01*
X165455600Y-123164600D02*
X164287200Y-123164600D01*
X164287200Y-123164600D02*
X164160200Y-123037600D01*
X164160200Y-123037600D02*
X160020000Y-123037600D01*
X160020000Y-123037600D02*
X158953200Y-121970800D01*
X158953200Y-121970800D02*
X158953200Y-121615200D01*
X159131000Y-120523000D02*
X160324800Y-119329200D01*
X166535800Y-124104400D02*
X166065200Y-124104400D01*
X156552200Y-115531200D02*
X156387800Y-115366800D01*
X156552200Y-116230400D02*
X156552200Y-115531200D01*
D34*
X158447524Y-105920324D02*
X158447524Y-105772668D01*
X157316153Y-106904039D02*
X157373839Y-106904039D01*
X157316153Y-106904039D02*
X157316153Y-106897153D01*
D33*
X165125400Y-95236600D02*
X164832600Y-95236600D01*
X166001000Y-95236600D02*
X165125400Y-95236600D01*
X167804400Y-97040000D02*
X166001000Y-95236600D01*
X168300000Y-97040000D02*
X167804400Y-97040000D01*
X157957856Y-105283000D02*
X158447524Y-105772668D01*
X157454600Y-105283000D02*
X157957856Y-105283000D01*
X156749167Y-104577567D02*
X157454600Y-105283000D01*
X156668223Y-104577567D02*
X156749167Y-104577567D01*
D34*
X158013400Y-107543600D02*
X158623000Y-107543600D01*
X158623000Y-107543600D02*
X159131000Y-107035600D01*
X159131000Y-107035600D02*
X159131000Y-106603800D01*
X159131000Y-106603800D02*
X158447524Y-105920324D01*
X157373839Y-106904039D02*
X158013400Y-107543600D01*
D33*
X156845000Y-118618000D02*
X155973600Y-118618000D01*
X157099000Y-118872000D02*
X156845000Y-118618000D01*
X157099000Y-120243600D02*
X157099000Y-118872000D01*
X157579060Y-120723660D02*
X157099000Y-120243600D01*
X157579060Y-120985280D02*
X157579060Y-120723660D01*
X155600400Y-123113800D02*
X156438600Y-122275600D01*
X156438600Y-122275600D02*
X157200600Y-122275600D01*
X157200600Y-122275600D02*
X157579060Y-121897140D01*
X157579060Y-121897140D02*
X157579060Y-120985280D01*
X155600400Y-124156600D02*
X155600400Y-123113800D01*
X157099000Y-118364000D02*
X156845000Y-118618000D01*
X157099000Y-117170200D02*
X157099000Y-118364000D01*
X158038800Y-116230400D02*
X157099000Y-117170200D01*
X158052200Y-116230400D02*
X158038800Y-116230400D01*
X158623000Y-116230400D02*
X158800800Y-116408200D01*
X160324800Y-116255800D02*
X160324800Y-116305200D01*
X158052200Y-116230400D02*
X158623000Y-116230400D01*
X156306856Y-104216200D02*
X156668223Y-104577567D01*
X155346400Y-104216200D02*
X156306856Y-104216200D01*
X153235200Y-102105000D02*
X155346400Y-104216200D01*
X153050000Y-102105000D02*
X153235200Y-102105000D01*
X162216400Y-118401400D02*
X161594800Y-117779800D01*
X161594800Y-117779800D02*
X160553400Y-117779800D01*
X160553400Y-117779800D02*
X160350200Y-117576600D01*
X162216400Y-119126000D02*
X162216400Y-118401400D01*
X164884800Y-101207000D02*
X164507800Y-100830000D01*
X164507800Y-100830000D02*
X163486000Y-100830000D01*
X165277800Y-101207000D02*
X164884800Y-101207000D01*
X159575000Y-94348800D02*
X159588200Y-94335600D01*
X164033200Y-94564200D02*
X164705600Y-95236600D01*
X164705600Y-95236600D02*
X165125400Y-95236600D01*
X159575000Y-95675000D02*
X159575000Y-94348800D01*
X162852800Y-122365200D02*
X161472880Y-120985280D01*
X161472880Y-120985280D02*
X157579060Y-120985280D01*
X165328600Y-122365200D02*
X162852800Y-122365200D01*
X163017200Y-111429800D02*
X161823400Y-111429800D01*
X163892247Y-112304847D02*
X163017200Y-111429800D01*
X163892247Y-112348761D02*
X163892247Y-112304847D01*
X165366000Y-95236600D02*
X165125400Y-95236600D01*
X165950200Y-101207000D02*
X166293800Y-100863400D01*
X166293800Y-100863400D02*
X166293800Y-99034600D01*
X166293800Y-99034600D02*
X165100000Y-97840800D01*
X165100000Y-97840800D02*
X164998400Y-97840800D01*
X165989000Y-95859600D02*
X165366000Y-95236600D01*
X165277800Y-101207000D02*
X165950200Y-101207000D01*
X157556200Y-108254800D02*
X158013400Y-107797600D01*
X158013400Y-107797600D02*
X158013400Y-107543600D01*
X158052200Y-115862800D02*
X157200600Y-115011200D01*
X158052200Y-116230400D02*
X158052200Y-115862800D01*
X163576000Y-103149400D02*
X163576000Y-103200200D01*
X163576000Y-103200200D02*
X163245800Y-103530400D01*
X159867600Y-107391200D02*
X158343600Y-108915200D01*
X158343600Y-108915200D02*
X158343600Y-109067600D01*
X165277800Y-101447600D02*
X163576000Y-103149400D01*
X165277800Y-101207000D02*
X165277800Y-101447600D01*
D34*
X159575000Y-96279200D02*
X159575000Y-95675000D01*
X155194000Y-94132400D02*
X155092400Y-94234000D01*
X155092400Y-94234000D02*
X155092400Y-96240600D01*
X155092400Y-96240600D02*
X155295600Y-96443800D01*
X155295600Y-96443800D02*
X157835600Y-96443800D01*
X157835600Y-96443800D02*
X157988000Y-96596200D01*
X157988000Y-96596200D02*
X159258000Y-96596200D01*
X159258000Y-96596200D02*
X159575000Y-96279200D01*
X155194000Y-93485400D02*
X155194000Y-94132400D01*
D33*
X165086600Y-119545800D02*
X165303200Y-119545800D01*
X165975600Y-122365200D02*
X166217600Y-122123200D01*
X166217600Y-122123200D02*
X166217600Y-119913400D01*
X166217600Y-119913400D02*
X165850000Y-119545800D01*
X165850000Y-119545800D02*
X165303200Y-119545800D01*
X165328600Y-122365200D02*
X165975600Y-122365200D01*
X164580000Y-120865200D02*
X164566600Y-120878600D01*
X164007800Y-113944400D02*
X163855400Y-113792000D01*
X163855400Y-113792000D02*
X163855400Y-113443286D01*
X163855400Y-113443286D02*
X163326561Y-112914447D01*
X165328600Y-120865200D02*
X164580000Y-120865200D01*
X164900800Y-99330000D02*
X165277800Y-99707000D01*
X163486000Y-99330000D02*
X164900800Y-99330000D01*
X163982400Y-104775000D02*
X164007800Y-104775000D01*
X163982400Y-105740200D02*
X163982400Y-104775000D01*
X163384247Y-106338353D02*
X163982400Y-105740200D01*
X163326561Y-106338353D02*
X163384247Y-106338353D01*
X164456680Y-124683520D02*
X165035800Y-124104400D01*
X163578540Y-124683520D02*
X164456680Y-124683520D01*
X167767000Y-93192600D02*
X166928800Y-94030800D01*
X168630600Y-93192600D02*
X167767000Y-93192600D01*
X168872600Y-92950600D02*
X168630600Y-93192600D01*
X168872600Y-92125800D02*
X168872600Y-92950600D01*
X160604200Y-108966000D02*
X160604200Y-113969800D01*
X163576000Y-123469400D02*
X163578540Y-123471940D01*
X163578540Y-123471940D02*
X163578540Y-124683520D01*
X163231847Y-106338353D02*
X160604200Y-108966000D01*
X163326561Y-106338353D02*
X163231847Y-106338353D01*
X162763200Y-94513400D02*
X162712400Y-94462600D01*
X162712400Y-94462600D02*
X162712400Y-92024200D01*
X162712400Y-92024200D02*
X163322000Y-91414600D01*
X163322000Y-91414600D02*
X166217600Y-91414600D01*
X166217600Y-91414600D02*
X166878000Y-91414600D01*
X166878000Y-91414600D02*
X168605200Y-91414600D01*
X168605200Y-91414600D02*
X168872600Y-91682000D01*
X168872600Y-91682000D02*
X168872600Y-92125800D01*
X163386600Y-102780000D02*
X164287200Y-101879400D01*
X164287200Y-101879400D02*
X164287200Y-101574600D01*
X164287200Y-101574600D02*
X164363400Y-101498400D01*
X166420800Y-92125800D02*
X167372600Y-92125800D01*
X162536000Y-102780000D02*
X163386600Y-102780000D01*
X155534400Y-117668000D02*
X155973600Y-117668000D01*
X155413200Y-103260400D02*
X155244800Y-103428800D01*
X153898600Y-105892600D02*
X154303598Y-106297598D01*
X154303598Y-106297598D02*
X154303598Y-108888398D01*
X154303598Y-108888398D02*
X154406600Y-108991400D01*
X154990800Y-118211600D02*
X155534400Y-117668000D01*
X156489400Y-103260400D02*
X155413200Y-103260400D01*
X155153400Y-119568000D02*
X154990800Y-119405400D01*
X154990800Y-119405400D02*
X154990800Y-118211600D01*
X155973600Y-119568000D02*
X155153400Y-119568000D01*
X155600400Y-119941200D02*
X155973600Y-119568000D01*
X155600400Y-121156600D02*
X155600400Y-119941200D01*
X166154800Y-94500000D02*
X166116000Y-94538800D01*
X168300000Y-94500000D02*
X166154800Y-94500000D01*
X161629505Y-114611503D02*
X161629505Y-114614105D01*
D34*
X162981702Y-115963700D02*
X161629505Y-114611503D01*
X163423600Y-115963700D02*
X162981702Y-115963700D01*
X163423600Y-114985800D02*
X163474400Y-114935000D01*
X163423600Y-115963700D02*
X163423600Y-114985800D01*
D33*
X154559700Y-91985400D02*
X153835100Y-92710000D01*
X155194000Y-91985400D02*
X154559700Y-91985400D01*
X161536000Y-103395400D02*
X161645600Y-103505000D01*
X161645600Y-103505000D02*
X162407600Y-103505000D01*
X162407600Y-103505000D02*
X163550600Y-104648000D01*
X163550600Y-104648000D02*
X163550600Y-104982944D01*
X163550600Y-104982944D02*
X162760876Y-105772668D01*
X161536000Y-102780000D02*
X161536000Y-103395400D01*
X161853544Y-106680000D02*
X162760876Y-105772668D01*
X160985200Y-106680000D02*
X161853544Y-106680000D01*
X160147000Y-105841800D02*
X160985200Y-106680000D01*
X160147000Y-105384600D02*
X160147000Y-105841800D01*
X160528000Y-104952800D02*
X160147000Y-105384600D01*
X160483008Y-104794628D02*
X160528000Y-104952800D01*
X159420588Y-103730989D02*
X160483008Y-104794628D01*
X158175569Y-103735554D02*
X159420588Y-103730989D01*
X157378400Y-102539800D02*
X158175569Y-103735554D01*
X156718000Y-102539800D02*
X157378400Y-102539800D01*
X156578300Y-102400100D02*
X156718000Y-102539800D01*
X156565600Y-102387400D02*
X156578300Y-102400100D01*
X153050000Y-97025000D02*
X153050000Y-97779600D01*
X156502100Y-102400100D02*
X156489400Y-102412800D01*
X153720800Y-98450400D02*
X153050000Y-97779600D01*
X153720800Y-98450400D02*
X153847800Y-98450400D01*
X153847800Y-98450400D02*
X154432000Y-99034600D01*
X154432000Y-99034600D02*
X154432000Y-102463600D01*
X154432000Y-102463600D02*
X154482800Y-102412800D01*
X154482800Y-102412800D02*
X156489400Y-102412800D01*
X156578300Y-102400100D02*
X156502100Y-102400100D01*
X161036000Y-103606600D02*
X161213800Y-103784400D01*
X161213800Y-103784400D02*
X162306000Y-103784400D01*
X162306000Y-103784400D02*
X162814000Y-104292400D01*
X162814000Y-104292400D02*
X162814000Y-104588173D01*
X162814000Y-104588173D02*
X162195190Y-105206983D01*
X161036000Y-102780000D02*
X161036000Y-103606600D01*
X154940000Y-99085400D02*
X154940000Y-100101400D01*
X154940000Y-100101400D02*
X155651200Y-100812600D01*
X155651200Y-100812600D02*
X157276800Y-100812600D01*
X157276800Y-100812600D02*
X157632400Y-101168200D01*
X157632400Y-101168200D02*
X157632400Y-102438200D01*
X157632400Y-102438200D02*
X158267400Y-103073200D01*
X158267400Y-103073200D02*
X158267400Y-103275778D01*
X158267400Y-103275778D02*
X158471222Y-103479600D01*
X158471222Y-103479600D02*
X160909000Y-103479600D01*
X160909000Y-103479600D02*
X161036000Y-103606600D01*
X161629505Y-104641297D02*
X161550703Y-104641297D01*
X161629505Y-104641297D02*
X161562697Y-104641297D01*
D34*
X161626903Y-104641297D02*
X161629505Y-104641297D01*
X154866800Y-104645000D02*
X154965400Y-104546400D01*
X160832800Y-105435400D02*
X161626903Y-104641297D01*
X153050000Y-104645000D02*
X154866800Y-104645000D01*
D33*
X158648400Y-104063800D02*
X157988000Y-104724200D01*
X159029400Y-104063800D02*
X158648400Y-104063800D01*
X159578895Y-104613295D02*
X159029400Y-104063800D01*
X159578895Y-104641297D02*
X159578895Y-104613295D01*
X153148600Y-109626400D02*
X153050000Y-109725000D01*
X159766000Y-105968800D02*
X159766000Y-106883200D01*
X159766000Y-106883200D02*
X158750000Y-107899200D01*
X158750000Y-107899200D02*
X158775400Y-107899200D01*
X158775400Y-107899200D02*
X156949600Y-109725000D01*
X156949600Y-109725000D02*
X153050000Y-109725000D01*
X159013210Y-105216010D02*
X159766000Y-105968800D01*
X159013210Y-105206983D02*
X159013210Y-105216010D01*
D34*
X155619097Y-108601095D02*
X155616495Y-108601095D01*
D33*
X154533600Y-107515598D02*
X155619097Y-108601095D01*
X154533600Y-106527600D02*
X154533600Y-107515598D01*
X154786577Y-106274623D02*
X154533600Y-106527600D01*
X154971167Y-106274623D02*
X154786577Y-106274623D01*
D34*
X153952400Y-112265000D02*
X153050000Y-112265000D01*
X155565695Y-110651705D02*
X153952400Y-112265000D01*
X155619097Y-110651705D02*
X155565695Y-110651705D01*
X154155600Y-114805000D02*
X153050000Y-114805000D01*
X154381200Y-114579400D02*
X154155600Y-114805000D01*
X154381200Y-112953800D02*
X154381200Y-114579400D01*
X156117610Y-111217390D02*
X154381200Y-112953800D01*
X156184783Y-111217390D02*
X156117610Y-111217390D01*
X153072400Y-117322600D02*
X153050000Y-117345000D01*
X154203400Y-117322600D02*
X153072400Y-117322600D01*
X154762200Y-116763800D02*
X154203400Y-117322600D01*
X154762200Y-113741200D02*
X154762200Y-116763800D01*
X156720324Y-111783076D02*
X154762200Y-113741200D01*
X156750468Y-111783076D02*
X156720324Y-111783076D01*
X157316153Y-112348761D02*
X157196039Y-112348761D01*
D33*
X155016200Y-114604800D02*
X155016200Y-117017800D01*
X155016200Y-117017800D02*
X154254200Y-117779800D01*
X154254200Y-117779800D02*
X154254200Y-119786400D01*
X154254200Y-119786400D02*
X154155600Y-119885000D01*
X154155600Y-119885000D02*
X153050000Y-119885000D01*
X157272239Y-112348761D02*
X155016200Y-114604800D01*
X157316153Y-112348761D02*
X157272239Y-112348761D01*
X157881839Y-112914447D02*
X157773353Y-112914447D01*
X155246202Y-115771798D02*
X155246202Y-117195600D01*
X155246202Y-117195600D02*
X154533600Y-117908202D01*
X154533600Y-117908202D02*
X154533600Y-122148600D01*
X154533600Y-122148600D02*
X154257200Y-122425000D01*
X154257200Y-122425000D02*
X153050000Y-122425000D01*
X157881839Y-113136161D02*
X155246202Y-115771798D01*
X157881839Y-112914447D02*
X157881839Y-113136161D01*
X167169400Y-122440000D02*
X168300000Y-122440000D01*
X166903400Y-122174000D02*
X167169400Y-122440000D01*
X166903400Y-119989600D02*
X166903400Y-122174000D01*
X165990402Y-119076602D02*
X166903400Y-119989600D01*
X164847402Y-119076602D02*
X165990402Y-119076602D01*
X164312600Y-118541800D02*
X164847402Y-119076602D01*
X162814000Y-118541800D02*
X164312600Y-118541800D01*
X162433000Y-118160800D02*
X162814000Y-118541800D01*
X162433000Y-118186200D02*
X162433000Y-118160800D01*
X161391600Y-117144800D02*
X162433000Y-118186200D01*
X159461200Y-117144800D02*
X161391600Y-117144800D01*
X159232600Y-116916200D02*
X159461200Y-117144800D01*
X159232600Y-116205000D02*
X159232600Y-116916200D01*
X157835600Y-114808000D02*
X159232600Y-116205000D01*
X157835600Y-114096800D02*
X157835600Y-114808000D01*
X158447524Y-113484876D02*
X157835600Y-114096800D01*
X158447524Y-113480132D02*
X158447524Y-113484876D01*
X167194800Y-119900000D02*
X168300000Y-119900000D01*
X166141400Y-118846600D02*
X167194800Y-119900000D01*
X164973000Y-118846600D02*
X166141400Y-118846600D01*
X164388800Y-118262400D02*
X164973000Y-118846600D01*
X162890200Y-118262400D02*
X164388800Y-118262400D01*
X162688402Y-118060602D02*
X162890200Y-118262400D01*
X162688402Y-116943002D02*
X162688402Y-118060602D01*
X161239200Y-115493800D02*
X162688402Y-116943002D01*
X158877000Y-115493800D02*
X161239200Y-115493800D01*
X158496000Y-115112800D02*
X158877000Y-115493800D01*
X158496000Y-114579400D02*
X158496000Y-115112800D01*
X159013210Y-114062190D02*
X158496000Y-114579400D01*
X159013210Y-114045817D02*
X159013210Y-114062190D01*
X168261200Y-117398800D02*
X168300000Y-117360000D01*
X164592000Y-117398800D02*
X168261200Y-117398800D01*
X163906200Y-116713000D02*
X164592000Y-117398800D01*
X162814000Y-116713000D02*
X163906200Y-116713000D01*
X161290000Y-115189000D02*
X162814000Y-116713000D01*
X160179190Y-115189000D02*
X161290000Y-115189000D01*
X159578895Y-114588705D02*
X160179190Y-115189000D01*
X159578895Y-114611503D02*
X159578895Y-114588705D01*
X166255000Y-112280000D02*
X168300000Y-112280000D01*
X165192390Y-111217390D02*
X166255000Y-112280000D01*
X165023617Y-111217390D02*
X165192390Y-111217390D01*
X166637400Y-109740000D02*
X168300000Y-109740000D01*
X165725695Y-110651705D02*
X166637400Y-109740000D01*
X165589303Y-110651705D02*
X165725695Y-110651705D01*
X166967600Y-107200000D02*
X168300000Y-107200000D01*
X165589303Y-108578297D02*
X166967600Y-107200000D01*
X165589303Y-108601095D02*
X165589303Y-108578297D01*
X167043800Y-104660000D02*
X168300000Y-104660000D01*
X166776400Y-104927400D02*
X167043800Y-104660000D01*
X166776400Y-106375200D02*
X166776400Y-104927400D01*
X165116190Y-108035410D02*
X166776400Y-106375200D01*
X165023617Y-108035410D02*
X165116190Y-108035410D01*
X165455600Y-106472056D02*
X164457932Y-107469724D01*
X165455600Y-105689400D02*
X165455600Y-106472056D01*
X163892247Y-106947953D02*
X163144200Y-107696000D01*
X163892247Y-106904039D02*
X163892247Y-106947953D01*
X164592000Y-100330000D02*
X164719000Y-100457000D01*
X164719000Y-100457000D02*
X165760400Y-100457000D01*
X165760400Y-100457000D02*
X165887400Y-100330000D01*
X165887400Y-100330000D02*
X165887400Y-99263200D01*
X165887400Y-99263200D02*
X165303200Y-98729800D01*
X165303200Y-98729800D02*
X165150800Y-98729800D01*
X160858200Y-96977200D02*
X160875000Y-96960400D01*
X160875000Y-96960400D02*
X160875000Y-95675000D01*
X163486000Y-100330000D02*
X164592000Y-100330000D01*
X164371400Y-99830000D02*
X164388800Y-99847400D01*
X161518600Y-96977200D02*
X161525000Y-96970800D01*
X161525000Y-96970800D02*
X161525000Y-95675000D01*
X163486000Y-99830000D02*
X164371400Y-99830000D01*
X157215840Y-94488000D02*
X156413200Y-95290640D01*
X162175000Y-94458600D02*
X161493200Y-93776800D01*
X161493200Y-93776800D02*
X159080200Y-93776800D01*
X159080200Y-93776800D02*
X158800800Y-93776800D01*
X158800800Y-93776800D02*
X158089600Y-94488000D01*
X158089600Y-94488000D02*
X157215840Y-94488000D01*
X162175000Y-95675000D02*
X162175000Y-94458600D01*
X156413200Y-98272600D02*
X156413200Y-98460560D01*
X154635200Y-91338400D02*
X154762200Y-91465400D01*
X154762200Y-91465400D02*
X157886400Y-91465400D01*
X157886400Y-91465400D02*
X158902400Y-92481400D01*
X158902400Y-92481400D02*
X158902400Y-93218000D01*
X157276800Y-97409000D02*
X156413200Y-98272600D01*
X153746200Y-91338400D02*
X154635200Y-91338400D01*
X156413200Y-99914200D02*
X156489400Y-99990400D01*
X156413200Y-98460560D02*
X156413200Y-99914200D01*
X155651200Y-107467400D02*
X155651200Y-106959400D01*
X155651200Y-106959400D02*
X156337000Y-106273600D01*
X156337000Y-106273600D02*
X156337000Y-105943400D01*
X156337000Y-105943400D02*
X155819695Y-105426095D01*
X156184783Y-108000983D02*
X155651200Y-107467400D01*
X156184783Y-108035410D02*
X156184783Y-108000983D01*
X162781532Y-113480132D02*
X165455600Y-116154200D01*
X162760876Y-113480132D02*
X162781532Y-113480132D01*
X165455600Y-112750600D02*
X165455600Y-113614200D01*
X164488076Y-111783076D02*
X165455600Y-112750600D01*
X164457932Y-111783076D02*
X164488076Y-111783076D01*
D34*
X163995100Y-117462300D02*
X164578600Y-118045800D01*
X164578600Y-118045800D02*
X165303200Y-118045800D01*
X163423600Y-117462300D02*
X163995100Y-117462300D01*
D35*
G36*
X162357823Y-122860172D02*
X162357825Y-122860175D01*
X162447322Y-122919975D01*
X162584921Y-123011916D01*
X162790703Y-123052849D01*
X162691154Y-123292590D01*
X162690847Y-123644665D01*
X162701657Y-123670828D01*
X162626719Y-123719050D01*
X162481729Y-123931250D01*
X162430720Y-124183140D01*
X162430720Y-125065000D01*
X158726880Y-125065000D01*
X158726880Y-124183140D01*
X158682602Y-123947823D01*
X158543530Y-123731699D01*
X158331330Y-123586709D01*
X158079440Y-123535700D01*
X157078680Y-123535700D01*
X157026924Y-123545439D01*
X157003562Y-123421283D01*
X156864490Y-123205159D01*
X156652290Y-123060169D01*
X156645380Y-123058770D01*
X156728550Y-122975600D01*
X157200600Y-122975600D01*
X157468479Y-122922316D01*
X157695575Y-122770575D01*
X158074035Y-122392115D01*
X158132885Y-122304040D01*
X158225776Y-122165018D01*
X158238062Y-122103253D01*
X158314757Y-122088822D01*
X158530881Y-121949750D01*
X158675871Y-121737550D01*
X158686456Y-121685280D01*
X161182930Y-121685280D01*
X162357823Y-122860172D01*
X162357823Y-122860172D01*
G37*
X162357823Y-122860172D02*
X162357825Y-122860175D01*
X162447322Y-122919975D01*
X162584921Y-123011916D01*
X162790703Y-123052849D01*
X162691154Y-123292590D01*
X162690847Y-123644665D01*
X162701657Y-123670828D01*
X162626719Y-123719050D01*
X162481729Y-123931250D01*
X162430720Y-124183140D01*
X162430720Y-125065000D01*
X158726880Y-125065000D01*
X158726880Y-124183140D01*
X158682602Y-123947823D01*
X158543530Y-123731699D01*
X158331330Y-123586709D01*
X158079440Y-123535700D01*
X157078680Y-123535700D01*
X157026924Y-123545439D01*
X157003562Y-123421283D01*
X156864490Y-123205159D01*
X156652290Y-123060169D01*
X156645380Y-123058770D01*
X156728550Y-122975600D01*
X157200600Y-122975600D01*
X157468479Y-122922316D01*
X157695575Y-122770575D01*
X158074035Y-122392115D01*
X158132885Y-122304040D01*
X158225776Y-122165018D01*
X158238062Y-122103253D01*
X158314757Y-122088822D01*
X158530881Y-121949750D01*
X158675871Y-121737550D01*
X158686456Y-121685280D01*
X161182930Y-121685280D01*
X162357823Y-122860172D01*
G36*
X166674425Y-122934975D02*
X166721348Y-122966328D01*
X166730729Y-123013489D01*
X166768673Y-123070277D01*
X166660800Y-123178150D01*
X166660800Y-123977400D01*
X167262050Y-123977400D01*
X167420800Y-123818650D01*
X167420800Y-123743699D01*
X167541766Y-123824526D01*
X168115255Y-123938600D01*
X168484745Y-123938600D01*
X168910648Y-123853883D01*
X168894967Y-123901092D01*
X168558649Y-124289690D01*
X168099222Y-124520005D01*
X167475324Y-124565000D01*
X167420800Y-124565000D01*
X167420800Y-124390150D01*
X167262050Y-124231400D01*
X166660800Y-124231400D01*
X166660800Y-124251400D01*
X166410800Y-124251400D01*
X166410800Y-124231400D01*
X166388800Y-124231400D01*
X166388800Y-123977400D01*
X166410800Y-123977400D01*
X166410800Y-123178150D01*
X166279617Y-123046967D01*
X166300031Y-123017090D01*
X166310092Y-122967406D01*
X166470575Y-122860175D01*
X166535100Y-122795650D01*
X166674425Y-122934975D01*
X166674425Y-122934975D01*
G37*
X166674425Y-122934975D02*
X166721348Y-122966328D01*
X166730729Y-123013489D01*
X166768673Y-123070277D01*
X166660800Y-123178150D01*
X166660800Y-123977400D01*
X167262050Y-123977400D01*
X167420800Y-123818650D01*
X167420800Y-123743699D01*
X167541766Y-123824526D01*
X168115255Y-123938600D01*
X168484745Y-123938600D01*
X168910648Y-123853883D01*
X168894967Y-123901092D01*
X168558649Y-124289690D01*
X168099222Y-124520005D01*
X167475324Y-124565000D01*
X167420800Y-124565000D01*
X167420800Y-124390150D01*
X167262050Y-124231400D01*
X166660800Y-124231400D01*
X166660800Y-124251400D01*
X166410800Y-124251400D01*
X166410800Y-124231400D01*
X166388800Y-124231400D01*
X166388800Y-123977400D01*
X166410800Y-123977400D01*
X166410800Y-123178150D01*
X166279617Y-123046967D01*
X166300031Y-123017090D01*
X166310092Y-122967406D01*
X166470575Y-122860175D01*
X166535100Y-122795650D01*
X166674425Y-122934975D01*
G36*
X160451800Y-119178200D02*
X160471800Y-119178200D01*
X160471800Y-119432200D01*
X160451800Y-119432200D01*
X160451800Y-119452200D01*
X160197800Y-119452200D01*
X160197800Y-119432200D01*
X160177800Y-119432200D01*
X160177800Y-119178200D01*
X160197800Y-119178200D01*
X160197800Y-119158200D01*
X160451800Y-119158200D01*
X160451800Y-119178200D01*
X160451800Y-119178200D01*
G37*
X160451800Y-119178200D02*
X160471800Y-119178200D01*
X160471800Y-119432200D01*
X160451800Y-119432200D01*
X160451800Y-119452200D01*
X160197800Y-119452200D01*
X160197800Y-119432200D01*
X160177800Y-119432200D01*
X160177800Y-119178200D01*
X160197800Y-119178200D01*
X160197800Y-119158200D01*
X160451800Y-119158200D01*
X160451800Y-119178200D01*
G36*
X158300600Y-117541000D02*
X158320600Y-117541000D01*
X158320600Y-117795000D01*
X158300600Y-117795000D01*
X158300600Y-117815000D01*
X158046600Y-117815000D01*
X158046600Y-117795000D01*
X158026600Y-117795000D01*
X158026600Y-117541000D01*
X158046600Y-117541000D01*
X158046600Y-117521000D01*
X158300600Y-117521000D01*
X158300600Y-117541000D01*
X158300600Y-117541000D01*
G37*
X158300600Y-117541000D02*
X158320600Y-117541000D01*
X158320600Y-117795000D01*
X158300600Y-117795000D01*
X158300600Y-117815000D01*
X158046600Y-117815000D01*
X158046600Y-117795000D01*
X158026600Y-117795000D01*
X158026600Y-117541000D01*
X158046600Y-117541000D01*
X158046600Y-117521000D01*
X158300600Y-117521000D01*
X158300600Y-117541000D01*
G36*
X156679200Y-116103400D02*
X156699200Y-116103400D01*
X156699200Y-116357400D01*
X156679200Y-116357400D01*
X156679200Y-116377400D01*
X156425200Y-116377400D01*
X156425200Y-116357400D01*
X156405200Y-116357400D01*
X156405200Y-116103400D01*
X156425200Y-116103400D01*
X156425200Y-116083400D01*
X156679200Y-116083400D01*
X156679200Y-116103400D01*
X156679200Y-116103400D01*
G37*
X156679200Y-116103400D02*
X156699200Y-116103400D01*
X156699200Y-116357400D01*
X156679200Y-116357400D01*
X156679200Y-116377400D01*
X156425200Y-116377400D01*
X156425200Y-116357400D01*
X156405200Y-116357400D01*
X156405200Y-116103400D01*
X156425200Y-116103400D01*
X156425200Y-116083400D01*
X156679200Y-116083400D01*
X156679200Y-116103400D01*
G36*
X161321433Y-112179629D02*
X161646590Y-112314646D01*
X161998665Y-112314953D01*
X162276854Y-112200008D01*
X162232356Y-112244506D01*
X162172843Y-112331606D01*
X162090935Y-112385927D01*
X161666671Y-112810191D01*
X161625729Y-112870112D01*
X161623360Y-112871093D01*
X161523969Y-112970484D01*
X161523969Y-113043007D01*
X161477102Y-113259056D01*
X161492735Y-113342137D01*
X161426317Y-113327729D01*
X161304200Y-113350707D01*
X161304200Y-112162366D01*
X161321433Y-112179629D01*
X161321433Y-112179629D01*
G37*
X161321433Y-112179629D02*
X161646590Y-112314646D01*
X161998665Y-112314953D01*
X162276854Y-112200008D01*
X162232356Y-112244506D01*
X162172843Y-112331606D01*
X162090935Y-112385927D01*
X161666671Y-112810191D01*
X161625729Y-112870112D01*
X161623360Y-112871093D01*
X161523969Y-112970484D01*
X161523969Y-113043007D01*
X161477102Y-113259056D01*
X161492735Y-113342137D01*
X161426317Y-113327729D01*
X161304200Y-113350707D01*
X161304200Y-112162366D01*
X161321433Y-112179629D01*
G36*
X162393496Y-108196657D02*
X162642233Y-108445829D01*
X162967390Y-108580846D01*
X163319465Y-108581153D01*
X163644857Y-108446704D01*
X163657823Y-108433761D01*
X163787991Y-108563929D01*
X163875089Y-108623441D01*
X163929412Y-108705351D01*
X164353676Y-109129615D01*
X164440778Y-109189129D01*
X164495098Y-109271036D01*
X164850462Y-109626400D01*
X164495098Y-109981764D01*
X164435586Y-110068862D01*
X164353676Y-110123185D01*
X163929412Y-110547449D01*
X163869898Y-110634551D01*
X163787991Y-110688871D01*
X163527106Y-110949756D01*
X163512175Y-110934825D01*
X163285079Y-110783084D01*
X163017200Y-110729800D01*
X162375109Y-110729800D01*
X162325367Y-110679971D01*
X162000210Y-110544954D01*
X161648135Y-110544647D01*
X161322743Y-110679096D01*
X161304200Y-110697607D01*
X161304200Y-109255950D01*
X162384724Y-108175426D01*
X162393496Y-108196657D01*
X162393496Y-108196657D01*
G37*
X162393496Y-108196657D02*
X162642233Y-108445829D01*
X162967390Y-108580846D01*
X163319465Y-108581153D01*
X163644857Y-108446704D01*
X163657823Y-108433761D01*
X163787991Y-108563929D01*
X163875089Y-108623441D01*
X163929412Y-108705351D01*
X164353676Y-109129615D01*
X164440778Y-109189129D01*
X164495098Y-109271036D01*
X164850462Y-109626400D01*
X164495098Y-109981764D01*
X164435586Y-110068862D01*
X164353676Y-110123185D01*
X163929412Y-110547449D01*
X163869898Y-110634551D01*
X163787991Y-110688871D01*
X163527106Y-110949756D01*
X163512175Y-110934825D01*
X163285079Y-110783084D01*
X163017200Y-110729800D01*
X162375109Y-110729800D01*
X162325367Y-110679971D01*
X162000210Y-110544954D01*
X161648135Y-110544647D01*
X161322743Y-110679096D01*
X161304200Y-110697607D01*
X161304200Y-109255950D01*
X162384724Y-108175426D01*
X162393496Y-108196657D01*
G36*
X168427000Y-101993000D02*
X168447000Y-101993000D01*
X168447000Y-102247000D01*
X168427000Y-102247000D01*
X168427000Y-102267000D01*
X168173000Y-102267000D01*
X168173000Y-102247000D01*
X168153000Y-102247000D01*
X168153000Y-101993000D01*
X168173000Y-101993000D01*
X168173000Y-101973000D01*
X168427000Y-101973000D01*
X168427000Y-101993000D01*
X168427000Y-101993000D01*
G37*
X168427000Y-101993000D02*
X168447000Y-101993000D01*
X168447000Y-102247000D01*
X168427000Y-102247000D01*
X168427000Y-102267000D01*
X168173000Y-102267000D01*
X168173000Y-102247000D01*
X168153000Y-102247000D01*
X168153000Y-101993000D01*
X168173000Y-101993000D01*
X168173000Y-101973000D01*
X168427000Y-101973000D01*
X168427000Y-101993000D01*
G36*
X167055585Y-100639670D02*
X167365069Y-100846461D01*
X166949268Y-101217964D01*
X166695291Y-101745209D01*
X166692642Y-101760974D01*
X166813782Y-101992998D01*
X166662749Y-101992998D01*
X166655378Y-101981967D01*
X166340758Y-101771744D01*
X166445175Y-101701975D01*
X166788775Y-101358375D01*
X166940516Y-101131279D01*
X166993801Y-100863400D01*
X166993800Y-100863395D01*
X166993800Y-100547202D01*
X167055585Y-100639670D01*
X167055585Y-100639670D01*
G37*
X167055585Y-100639670D02*
X167365069Y-100846461D01*
X166949268Y-101217964D01*
X166695291Y-101745209D01*
X166692642Y-101760974D01*
X166813782Y-101992998D01*
X166662749Y-101992998D01*
X166655378Y-101981967D01*
X166340758Y-101771744D01*
X166445175Y-101701975D01*
X166788775Y-101358375D01*
X166940516Y-101131279D01*
X166993801Y-100863400D01*
X166993800Y-100863395D01*
X166993800Y-100547202D01*
X167055585Y-100639670D01*
G36*
X164274150Y-96609600D02*
X164998400Y-96609600D01*
X164998400Y-96589600D01*
X165252400Y-96589600D01*
X165252400Y-96609600D01*
X165272400Y-96609600D01*
X165272400Y-96863600D01*
X165252400Y-96863600D01*
X165252400Y-96883600D01*
X164998400Y-96883600D01*
X164998400Y-96863600D01*
X164274150Y-96863600D01*
X164115400Y-97022350D01*
X164115400Y-97262909D01*
X164197647Y-97461471D01*
X164113554Y-97663990D01*
X164113247Y-98016065D01*
X164168379Y-98149494D01*
X163888000Y-98045000D01*
X163613000Y-98045000D01*
X163613000Y-98545000D01*
X163359000Y-98545000D01*
X163359000Y-98045000D01*
X163321000Y-98045000D01*
X163321000Y-98007000D01*
X162821000Y-98007000D01*
X162821000Y-97753000D01*
X163321000Y-97753000D01*
X163321000Y-97478000D01*
X163212645Y-97187261D01*
X163001277Y-96960119D01*
X162854901Y-96897438D01*
X162858948Y-96891515D01*
X163023298Y-96959759D01*
X163574285Y-96960240D01*
X164083515Y-96749831D01*
X164249092Y-96584542D01*
X164274150Y-96609600D01*
X164274150Y-96609600D01*
G37*
X164274150Y-96609600D02*
X164998400Y-96609600D01*
X164998400Y-96589600D01*
X165252400Y-96589600D01*
X165252400Y-96609600D01*
X165272400Y-96609600D01*
X165272400Y-96863600D01*
X165252400Y-96863600D01*
X165252400Y-96883600D01*
X164998400Y-96883600D01*
X164998400Y-96863600D01*
X164274150Y-96863600D01*
X164115400Y-97022350D01*
X164115400Y-97262909D01*
X164197647Y-97461471D01*
X164113554Y-97663990D01*
X164113247Y-98016065D01*
X164168379Y-98149494D01*
X163888000Y-98045000D01*
X163613000Y-98045000D01*
X163613000Y-98545000D01*
X163359000Y-98545000D01*
X163359000Y-98045000D01*
X163321000Y-98045000D01*
X163321000Y-98007000D01*
X162821000Y-98007000D01*
X162821000Y-97753000D01*
X163321000Y-97753000D01*
X163321000Y-97478000D01*
X163212645Y-97187261D01*
X163001277Y-96960119D01*
X162854901Y-96897438D01*
X162858948Y-96891515D01*
X163023298Y-96959759D01*
X163574285Y-96960240D01*
X164083515Y-96749831D01*
X164249092Y-96584542D01*
X164274150Y-96609600D01*
G36*
X152623200Y-91211400D02*
X152643200Y-91211400D01*
X152643200Y-91465400D01*
X152623200Y-91465400D01*
X152623200Y-91485400D01*
X152435000Y-91485400D01*
X152435000Y-91191400D01*
X152623200Y-91191400D01*
X152623200Y-91211400D01*
X152623200Y-91211400D01*
G37*
X152623200Y-91211400D02*
X152643200Y-91211400D01*
X152643200Y-91465400D01*
X152623200Y-91465400D01*
X152623200Y-91485400D01*
X152435000Y-91485400D01*
X152435000Y-91191400D01*
X152623200Y-91191400D01*
X152623200Y-91211400D01*
M02*
