G04 #@! TF.FileFunction,Legend,Bot*
%FSLAX46Y46*%
G04 Gerber Fmt 4.6, Leading zero omitted, Abs format (unit mm)*
G04 Created by KiCad (PCBNEW 4.0.1-stable) date 01-Oct-16 1:06:19 PM*
%MOMM*%
G01*
G04 APERTURE LIST*
%ADD10C,0.150000*%
%ADD11C,0.250000*%
%ADD12C,0.100000*%
%ADD13C,0.200000*%
%ADD14C,0.002540*%
%ADD15C,2.032000*%
%ADD16O,2.032000X2.032000*%
%ADD17R,0.900000X0.500000*%
%ADD18C,1.500000*%
%ADD19O,2.200000X2.500000*%
%ADD20O,2.032000X1.727200*%
G04 APERTURE END LIST*
D10*
D11*
X162261371Y-92648114D02*
X162023276Y-93314781D01*
X161785180Y-92648114D01*
X161213752Y-92314781D02*
X161118513Y-92314781D01*
X161023275Y-92362400D01*
X160975656Y-92410019D01*
X160928037Y-92505257D01*
X160880418Y-92695733D01*
X160880418Y-92933829D01*
X160928037Y-93124305D01*
X160975656Y-93219543D01*
X161023275Y-93267162D01*
X161118513Y-93314781D01*
X161213752Y-93314781D01*
X161308990Y-93267162D01*
X161356609Y-93219543D01*
X161404228Y-93124305D01*
X161451847Y-92933829D01*
X161451847Y-92695733D01*
X161404228Y-92505257D01*
X161356609Y-92410019D01*
X161308990Y-92362400D01*
X161213752Y-92314781D01*
X160451847Y-93219543D02*
X160404228Y-93267162D01*
X160451847Y-93314781D01*
X160499466Y-93267162D01*
X160451847Y-93219543D01*
X160451847Y-93314781D01*
X159451847Y-93314781D02*
X160023276Y-93314781D01*
X159737562Y-93314781D02*
X159737562Y-92314781D01*
X159832800Y-92457638D01*
X159928038Y-92552876D01*
X160023276Y-92600495D01*
D12*
X169748200Y-123545600D02*
X169748200Y-90500200D01*
X151648400Y-123076200D02*
G75*
G03X153398400Y-125326200I2000000J-250000D01*
G01*
X154923800Y-125326200D02*
X153423800Y-125326200D01*
X155423800Y-125826200D02*
X154923800Y-125326200D01*
X165449200Y-125826200D02*
X155449200Y-125826200D01*
X165974600Y-125326200D02*
X165474600Y-125826200D01*
X167474600Y-125326200D02*
X165974600Y-125326200D01*
X151650700Y-90487500D02*
X151650700Y-123075700D01*
X151648400Y-90500000D02*
X157148400Y-90500000D01*
X157173800Y-90500000D02*
X157923800Y-91250000D01*
X164449200Y-90500000D02*
X163699200Y-91250000D01*
X164439600Y-90500200D02*
X169748200Y-90500200D01*
X163699200Y-91250000D02*
X157949200Y-91250000D01*
D11*
X162513971Y-111495675D02*
X162513971Y-111829009D01*
X163037781Y-111971866D02*
X163037781Y-111495675D01*
X162037781Y-111495675D01*
X162037781Y-111971866D01*
X163037781Y-112305199D02*
X162371114Y-112829009D01*
X162371114Y-112305199D02*
X163037781Y-112829009D01*
X162371114Y-113209961D02*
X163371114Y-113209961D01*
X162418733Y-113209961D02*
X162371114Y-113305199D01*
X162371114Y-113495676D01*
X162418733Y-113590914D01*
X162466352Y-113638533D01*
X162561590Y-113686152D01*
X162847305Y-113686152D01*
X162942543Y-113638533D01*
X162990162Y-113590914D01*
X163037781Y-113495676D01*
X163037781Y-113305199D01*
X162990162Y-113209961D01*
X163037781Y-114257580D02*
X162990162Y-114162342D01*
X162894924Y-114114723D01*
X162037781Y-114114723D01*
X163037781Y-114781390D02*
X162990162Y-114686152D01*
X162942543Y-114638533D01*
X162847305Y-114590914D01*
X162561590Y-114590914D01*
X162466352Y-114638533D01*
X162418733Y-114686152D01*
X162371114Y-114781390D01*
X162371114Y-114924248D01*
X162418733Y-115019486D01*
X162466352Y-115067105D01*
X162561590Y-115114724D01*
X162847305Y-115114724D01*
X162942543Y-115067105D01*
X162990162Y-115019486D01*
X163037781Y-114924248D01*
X163037781Y-114781390D01*
X163037781Y-115543295D02*
X162371114Y-115543295D01*
X162561590Y-115543295D02*
X162466352Y-115590914D01*
X162418733Y-115638533D01*
X162371114Y-115733771D01*
X162371114Y-115829010D01*
X162990162Y-116543296D02*
X163037781Y-116448058D01*
X163037781Y-116257581D01*
X162990162Y-116162343D01*
X162894924Y-116114724D01*
X162513971Y-116114724D01*
X162418733Y-116162343D01*
X162371114Y-116257581D01*
X162371114Y-116448058D01*
X162418733Y-116543296D01*
X162513971Y-116590915D01*
X162609210Y-116590915D01*
X162704448Y-116114724D01*
X162513971Y-117019486D02*
X162513971Y-117352820D01*
X163037781Y-117495677D02*
X163037781Y-117019486D01*
X162037781Y-117019486D01*
X162037781Y-117495677D01*
X163037781Y-117924248D02*
X162371114Y-117924248D01*
X162466352Y-117924248D02*
X162418733Y-117971867D01*
X162371114Y-118067105D01*
X162371114Y-118209963D01*
X162418733Y-118305201D01*
X162513971Y-118352820D01*
X163037781Y-118352820D01*
X162513971Y-118352820D02*
X162418733Y-118400439D01*
X162371114Y-118495677D01*
X162371114Y-118638534D01*
X162418733Y-118733772D01*
X162513971Y-118781391D01*
X163037781Y-118781391D01*
X163037781Y-119257581D02*
X162037781Y-119257581D01*
X162418733Y-119257581D02*
X162371114Y-119352819D01*
X162371114Y-119543296D01*
X162418733Y-119638534D01*
X162466352Y-119686153D01*
X162561590Y-119733772D01*
X162847305Y-119733772D01*
X162942543Y-119686153D01*
X162990162Y-119638534D01*
X163037781Y-119543296D01*
X163037781Y-119352819D01*
X162990162Y-119257581D01*
X162990162Y-120543296D02*
X163037781Y-120448058D01*
X163037781Y-120257581D01*
X162990162Y-120162343D01*
X162894924Y-120114724D01*
X162513971Y-120114724D01*
X162418733Y-120162343D01*
X162371114Y-120257581D01*
X162371114Y-120448058D01*
X162418733Y-120543296D01*
X162513971Y-120590915D01*
X162609210Y-120590915D01*
X162704448Y-120114724D01*
X163037781Y-121448058D02*
X162037781Y-121448058D01*
X162990162Y-121448058D02*
X163037781Y-121352820D01*
X163037781Y-121162343D01*
X162990162Y-121067105D01*
X162942543Y-121019486D01*
X162847305Y-120971867D01*
X162561590Y-120971867D01*
X162466352Y-121019486D01*
X162418733Y-121067105D01*
X162371114Y-121162343D01*
X162371114Y-121352820D01*
X162418733Y-121448058D01*
X163037781Y-122352820D02*
X162037781Y-122352820D01*
X162990162Y-122352820D02*
X163037781Y-122257582D01*
X163037781Y-122067105D01*
X162990162Y-121971867D01*
X162942543Y-121924248D01*
X162847305Y-121876629D01*
X162561590Y-121876629D01*
X162466352Y-121924248D01*
X162418733Y-121971867D01*
X162371114Y-122067105D01*
X162371114Y-122257582D01*
X162418733Y-122352820D01*
X162990162Y-123209963D02*
X163037781Y-123114725D01*
X163037781Y-122924248D01*
X162990162Y-122829010D01*
X162894924Y-122781391D01*
X162513971Y-122781391D01*
X162418733Y-122829010D01*
X162371114Y-122924248D01*
X162371114Y-123114725D01*
X162418733Y-123209963D01*
X162513971Y-123257582D01*
X162609210Y-123257582D01*
X162704448Y-122781391D01*
X163037781Y-124114725D02*
X162037781Y-124114725D01*
X162990162Y-124114725D02*
X163037781Y-124019487D01*
X163037781Y-123829010D01*
X162990162Y-123733772D01*
X162942543Y-123686153D01*
X162847305Y-123638534D01*
X162561590Y-123638534D01*
X162466352Y-123686153D01*
X162418733Y-123733772D01*
X162371114Y-123829010D01*
X162371114Y-124019487D01*
X162418733Y-124114725D01*
D13*
X157632400Y-108966000D02*
X157937200Y-109270800D01*
X157937200Y-109270800D02*
X158267400Y-108940600D01*
X158267400Y-108940600D02*
X157962600Y-108635800D01*
X157962600Y-108635800D02*
X157683200Y-108915200D01*
X157683200Y-108915200D02*
X158115000Y-108915200D01*
X158115000Y-108915200D02*
X157962600Y-109067600D01*
X157962600Y-109067600D02*
X157962600Y-108788200D01*
X157962600Y-108788200D02*
X157835600Y-108915200D01*
X157835600Y-108915200D02*
X157911800Y-108991400D01*
X157911800Y-108991400D02*
X157911800Y-109067600D01*
X156133800Y-108991400D02*
X156133800Y-109067600D01*
X156057600Y-108915200D02*
X156133800Y-108991400D01*
X156184600Y-108788200D02*
X156057600Y-108915200D01*
X156184600Y-109067600D02*
X156184600Y-108788200D01*
X156337000Y-108915200D02*
X156184600Y-109067600D01*
X155905200Y-108915200D02*
X156337000Y-108915200D01*
X156184600Y-108635800D02*
X155905200Y-108915200D01*
X156489400Y-108940600D02*
X156184600Y-108635800D01*
X156159200Y-109270800D02*
X156489400Y-108940600D01*
X155854400Y-108966000D02*
X156159200Y-109270800D01*
D11*
X162016914Y-98309181D02*
X161397866Y-98309181D01*
X161731200Y-98690133D01*
X161588342Y-98690133D01*
X161493104Y-98737752D01*
X161445485Y-98785371D01*
X161397866Y-98880610D01*
X161397866Y-99118705D01*
X161445485Y-99213943D01*
X161493104Y-99261562D01*
X161588342Y-99309181D01*
X161874057Y-99309181D01*
X161969295Y-99261562D01*
X162016914Y-99213943D01*
X161016914Y-98404419D02*
X160969295Y-98356800D01*
X160874057Y-98309181D01*
X160635961Y-98309181D01*
X160540723Y-98356800D01*
X160493104Y-98404419D01*
X160445485Y-98499657D01*
X160445485Y-98594895D01*
X160493104Y-98737752D01*
X161064533Y-99309181D01*
X160445485Y-99309181D01*
X159874057Y-98737752D02*
X159969295Y-98690133D01*
X160016914Y-98642514D01*
X160064533Y-98547276D01*
X160064533Y-98499657D01*
X160016914Y-98404419D01*
X159969295Y-98356800D01*
X159874057Y-98309181D01*
X159683580Y-98309181D01*
X159588342Y-98356800D01*
X159540723Y-98404419D01*
X159493104Y-98499657D01*
X159493104Y-98547276D01*
X159540723Y-98642514D01*
X159588342Y-98690133D01*
X159683580Y-98737752D01*
X159874057Y-98737752D01*
X159969295Y-98785371D01*
X160016914Y-98832990D01*
X160064533Y-98928229D01*
X160064533Y-99118705D01*
X160016914Y-99213943D01*
X159969295Y-99261562D01*
X159874057Y-99309181D01*
X159683580Y-99309181D01*
X159588342Y-99261562D01*
X159540723Y-99213943D01*
X159493104Y-99118705D01*
X159493104Y-98928229D01*
X159540723Y-98832990D01*
X159588342Y-98785371D01*
X159683580Y-98737752D01*
D13*
X163449000Y-97409000D02*
X163550600Y-97409000D01*
X163449000Y-97663000D02*
X163449000Y-97409000D01*
X163169600Y-97942400D02*
X163449000Y-97663000D01*
X158242000Y-97942400D02*
X163169600Y-97942400D01*
X157734000Y-97434400D02*
X158242000Y-97942400D01*
D11*
X163556581Y-97454981D02*
X163651819Y-97407362D01*
X163699438Y-97359743D01*
X163747057Y-97264505D01*
X163747057Y-96978790D01*
X163699438Y-96883552D01*
X163651819Y-96835933D01*
X163556581Y-96788314D01*
X163413723Y-96788314D01*
X163318485Y-96835933D01*
X163270866Y-96883552D01*
X163223247Y-96978790D01*
X163223247Y-97264505D01*
X163270866Y-97359743D01*
X163318485Y-97407362D01*
X163413723Y-97454981D01*
X163556581Y-97454981D01*
X162794676Y-96788314D02*
X162794676Y-97454981D01*
X162794676Y-96883552D02*
X162747057Y-96835933D01*
X162651819Y-96788314D01*
X162508961Y-96788314D01*
X162413723Y-96835933D01*
X162366104Y-96931171D01*
X162366104Y-97454981D01*
X161508961Y-97407362D02*
X161604199Y-97454981D01*
X161794676Y-97454981D01*
X161889914Y-97407362D01*
X161937533Y-97312124D01*
X161937533Y-96931171D01*
X161889914Y-96835933D01*
X161794676Y-96788314D01*
X161604199Y-96788314D01*
X161508961Y-96835933D01*
X161461342Y-96931171D01*
X161461342Y-97026410D01*
X161937533Y-97121648D01*
X161032771Y-97454981D02*
X161032771Y-96454981D01*
X160699437Y-97169267D01*
X160366104Y-96454981D01*
X160366104Y-97454981D01*
X159889914Y-97454981D02*
X159889914Y-96788314D01*
X159889914Y-96454981D02*
X159937533Y-96502600D01*
X159889914Y-96550219D01*
X159842295Y-96502600D01*
X159889914Y-96454981D01*
X159889914Y-96550219D01*
X158985152Y-97407362D02*
X159080390Y-97454981D01*
X159270867Y-97454981D01*
X159366105Y-97407362D01*
X159413724Y-97359743D01*
X159461343Y-97264505D01*
X159461343Y-96978790D01*
X159413724Y-96883552D01*
X159366105Y-96835933D01*
X159270867Y-96788314D01*
X159080390Y-96788314D01*
X158985152Y-96835933D01*
X158556581Y-97454981D02*
X158556581Y-96788314D01*
X158556581Y-96978790D02*
X158508962Y-96883552D01*
X158461343Y-96835933D01*
X158366105Y-96788314D01*
X158270866Y-96788314D01*
X157794676Y-97454981D02*
X157889914Y-97407362D01*
X157937533Y-97359743D01*
X157985152Y-97264505D01*
X157985152Y-96978790D01*
X157937533Y-96883552D01*
X157889914Y-96835933D01*
X157794676Y-96788314D01*
X157651818Y-96788314D01*
X157556580Y-96835933D01*
X157508961Y-96883552D01*
X157461342Y-96978790D01*
X157461342Y-97264505D01*
X157508961Y-97359743D01*
X157556580Y-97407362D01*
X157651818Y-97454981D01*
X157794676Y-97454981D01*
D12*
X167500000Y-125326200D02*
G75*
G03X169750000Y-123576200I250000J2000000D01*
G01*
D13*
X157575305Y-109791648D02*
X157575305Y-110286886D01*
X157880067Y-110020219D01*
X157880067Y-110134505D01*
X157918162Y-110210695D01*
X157956257Y-110248791D01*
X158032448Y-110286886D01*
X158222924Y-110286886D01*
X158299114Y-110248791D01*
X158337210Y-110210695D01*
X158375305Y-110134505D01*
X158375305Y-109905933D01*
X158337210Y-109829743D01*
X158299114Y-109791648D01*
X158299114Y-110629743D02*
X158337210Y-110667838D01*
X158375305Y-110629743D01*
X158337210Y-110591648D01*
X158299114Y-110629743D01*
X158375305Y-110629743D01*
X157575305Y-110934505D02*
X157575305Y-111429743D01*
X157880067Y-111163076D01*
X157880067Y-111277362D01*
X157918162Y-111353552D01*
X157956257Y-111391648D01*
X158032448Y-111429743D01*
X158222924Y-111429743D01*
X158299114Y-111391648D01*
X158337210Y-111353552D01*
X158375305Y-111277362D01*
X158375305Y-111048790D01*
X158337210Y-110972600D01*
X158299114Y-110934505D01*
X157575305Y-111658314D02*
X158375305Y-111924981D01*
X157575305Y-112191648D01*
X155822705Y-110185220D02*
X155822705Y-109804267D01*
X156203657Y-109766172D01*
X156165562Y-109804267D01*
X156127467Y-109880458D01*
X156127467Y-110070934D01*
X156165562Y-110147124D01*
X156203657Y-110185220D01*
X156279848Y-110223315D01*
X156470324Y-110223315D01*
X156546514Y-110185220D01*
X156584610Y-110147124D01*
X156622705Y-110070934D01*
X156622705Y-109880458D01*
X156584610Y-109804267D01*
X156546514Y-109766172D01*
X155822705Y-110451886D02*
X156622705Y-110718553D01*
X155822705Y-110985220D01*
D10*
X166705600Y-116904200D02*
X166705600Y-115404200D01*
X166705600Y-115404200D02*
X166205600Y-114904200D01*
X166205600Y-114904200D02*
X166705600Y-114404200D01*
X166705600Y-114404200D02*
X166705600Y-112654200D01*
X166705600Y-112654200D02*
X166455600Y-112404200D01*
X166455600Y-112404200D02*
X164705600Y-112404200D01*
X164705600Y-112404200D02*
X164455600Y-112404200D01*
X164455600Y-112404200D02*
X164205600Y-112654200D01*
X164205600Y-112654200D02*
X164205600Y-114404200D01*
X164205600Y-114404200D02*
X164705600Y-114904200D01*
X164705600Y-114904200D02*
X164205600Y-115404200D01*
X164205600Y-115404200D02*
X164205600Y-116904200D01*
X164205600Y-116904200D02*
X164205600Y-117154200D01*
X164205600Y-117154200D02*
X164455600Y-117404200D01*
X164455600Y-117404200D02*
X166455600Y-117404200D01*
X166455600Y-117404200D02*
X166705600Y-117154200D01*
X166705600Y-117154200D02*
X166705600Y-116904200D01*
X166205600Y-101939400D02*
X164955600Y-101939400D01*
X164955600Y-101939400D02*
X164705600Y-101939400D01*
X164705600Y-101939400D02*
X164205600Y-102439400D01*
X164205600Y-102439400D02*
X164205600Y-103939400D01*
X164205600Y-103939400D02*
X164705600Y-104439400D01*
X164705600Y-104439400D02*
X164205600Y-104939400D01*
X164205600Y-104939400D02*
X164205600Y-106439400D01*
X164205600Y-106439400D02*
X164705600Y-106939400D01*
X164705600Y-106939400D02*
X166205600Y-106939400D01*
X166205600Y-106939400D02*
X166705600Y-106439400D01*
X166705600Y-104939400D02*
X166205600Y-104439400D01*
X166205600Y-104439400D02*
X166705600Y-103939400D01*
X166705600Y-103939400D02*
X166705600Y-102439400D01*
X166705600Y-102439400D02*
X166205600Y-101939400D01*
X166705600Y-106439400D02*
X166705600Y-104939400D01*
D14*
G36*
X159296100Y-122265440D02*
X159623760Y-122257820D01*
X159857440Y-122242580D01*
X160037780Y-122207020D01*
X160202880Y-122151140D01*
X160296860Y-122107960D01*
X160797240Y-121808240D01*
X160886140Y-121724420D01*
X158135320Y-121724420D01*
X158135320Y-121396760D01*
X158137860Y-121203720D01*
X158163260Y-121109740D01*
X158229300Y-121074180D01*
X158318200Y-121069100D01*
X158480760Y-121086880D01*
X158559500Y-121155460D01*
X158577280Y-121305320D01*
X158572200Y-121422160D01*
X158551880Y-121589800D01*
X158498540Y-121671080D01*
X158381700Y-121699020D01*
X158343600Y-121704100D01*
X158135320Y-121724420D01*
X160886140Y-121724420D01*
X160896300Y-121716800D01*
X160327340Y-121716800D01*
X160103820Y-121716800D01*
X159877760Y-121716800D01*
X159748220Y-121716800D01*
X159522160Y-121716800D01*
X159296100Y-121716800D01*
X159166560Y-121716800D01*
X158943040Y-121716800D01*
X158716980Y-121716800D01*
X158716980Y-121394220D01*
X158716980Y-121069100D01*
X158943040Y-121069100D01*
X159166560Y-121069100D01*
X159166560Y-121394220D01*
X159166560Y-121716800D01*
X159296100Y-121716800D01*
X159296100Y-121394220D01*
X159296100Y-121069100D01*
X159522160Y-121069100D01*
X159748220Y-121069100D01*
X159748220Y-121394220D01*
X159748220Y-121716800D01*
X159877760Y-121716800D01*
X159877760Y-121394220D01*
X159877760Y-121069100D01*
X160103820Y-121069100D01*
X160327340Y-121069100D01*
X160327340Y-121394220D01*
X160327340Y-121716800D01*
X160896300Y-121716800D01*
X161196020Y-121434860D01*
X161483040Y-121005600D01*
X160685480Y-121005600D01*
X158071820Y-121005600D01*
X157744160Y-121005600D01*
X157416500Y-121005600D01*
X157436820Y-120797320D01*
X157457140Y-120670320D01*
X157513020Y-120604280D01*
X157637480Y-120576340D01*
X157764480Y-120566180D01*
X158071820Y-120548400D01*
X158071820Y-120777000D01*
X158071820Y-121005600D01*
X160685480Y-121005600D01*
X160505140Y-121000520D01*
X160421320Y-120967500D01*
X160393380Y-120881140D01*
X160393380Y-120779540D01*
X160398460Y-120639840D01*
X160439100Y-120576340D01*
X160553400Y-120556020D01*
X160685480Y-120556020D01*
X160863280Y-120558560D01*
X160944560Y-120591580D01*
X160972500Y-120677940D01*
X160975040Y-120779540D01*
X160967420Y-120919240D01*
X160926780Y-120985280D01*
X160812480Y-121003060D01*
X160685480Y-121005600D01*
X161483040Y-121005600D01*
X161505900Y-120975120D01*
X161683700Y-120573800D01*
X161726880Y-120426480D01*
X160685480Y-120426480D01*
X158071820Y-120426480D01*
X157749240Y-120426480D01*
X157424120Y-120426480D01*
X157424120Y-120200420D01*
X157424120Y-119974360D01*
X157749240Y-119974360D01*
X158071820Y-119974360D01*
X158071820Y-120200420D01*
X158071820Y-120426480D01*
X160685480Y-120426480D01*
X160505140Y-120418860D01*
X160421320Y-120385840D01*
X160393380Y-120299480D01*
X160393380Y-120200420D01*
X160398460Y-120060720D01*
X160439100Y-119994680D01*
X160553400Y-119974360D01*
X160685480Y-119974360D01*
X160863280Y-119979440D01*
X160944560Y-120012460D01*
X160972500Y-120098820D01*
X160975040Y-120200420D01*
X160967420Y-120337580D01*
X160926780Y-120403620D01*
X160812480Y-120423940D01*
X160685480Y-120426480D01*
X161726880Y-120426480D01*
X161757360Y-120337580D01*
X161798000Y-120126760D01*
X161808160Y-119880380D01*
X161805620Y-119829580D01*
X160685480Y-119829580D01*
X160505140Y-119824500D01*
X160464500Y-119811800D01*
X157858460Y-119811800D01*
X157749240Y-119811800D01*
X157568900Y-119806720D01*
X157480000Y-119771160D01*
X157446980Y-119682260D01*
X157436820Y-119603520D01*
X157416500Y-119395240D01*
X157749240Y-119395240D01*
X158079440Y-119395240D01*
X158056580Y-119603520D01*
X158038800Y-119733060D01*
X157985460Y-119791480D01*
X157858460Y-119811800D01*
X160464500Y-119811800D01*
X160421320Y-119796560D01*
X160393380Y-119710200D01*
X160393380Y-119613680D01*
X160398460Y-119476520D01*
X160441640Y-119413020D01*
X160555940Y-119395240D01*
X160685480Y-119395240D01*
X160863280Y-119397780D01*
X160944560Y-119430800D01*
X160972500Y-119517160D01*
X160975040Y-119608600D01*
X160967420Y-119740680D01*
X160921700Y-119804180D01*
X160807400Y-119824500D01*
X160685480Y-119829580D01*
X161805620Y-119829580D01*
X161800540Y-119598440D01*
X161777680Y-119278400D01*
X161764980Y-119217440D01*
X160815020Y-119217440D01*
X160782000Y-119214900D01*
X157505400Y-119214900D01*
X157467300Y-119171720D01*
X157439360Y-119042180D01*
X157439360Y-119026940D01*
X157416500Y-118818660D01*
X157789880Y-118800880D01*
X158163260Y-118780560D01*
X158160720Y-118747540D01*
X157845760Y-118747540D01*
X157586680Y-118747540D01*
X157553660Y-118717060D01*
X157586680Y-118684040D01*
X157617160Y-118717060D01*
X157586680Y-118747540D01*
X157845760Y-118747540D01*
X157812740Y-118717060D01*
X157845760Y-118684040D01*
X157878780Y-118717060D01*
X157845760Y-118747540D01*
X158160720Y-118747540D01*
X158142940Y-118442740D01*
X158135320Y-118244620D01*
X158153100Y-118143020D01*
X158211520Y-118107460D01*
X158318200Y-118102380D01*
X158442660Y-118112540D01*
X158503620Y-118168420D01*
X158529020Y-118305580D01*
X158534100Y-118376700D01*
X158544260Y-118587520D01*
X158529020Y-118699280D01*
X158475680Y-118742460D01*
X158422340Y-118747540D01*
X158341060Y-118775480D01*
X158335980Y-118795800D01*
X158330900Y-118945660D01*
X158249620Y-118996460D01*
X158198820Y-118986300D01*
X158097220Y-118988840D01*
X158071820Y-119077740D01*
X158046420Y-119159020D01*
X157952440Y-119192040D01*
X157812740Y-119199660D01*
X157634940Y-119202200D01*
X157520640Y-119212360D01*
X157505400Y-119214900D01*
X160782000Y-119214900D01*
X160685480Y-119209820D01*
X160505140Y-119189500D01*
X160418780Y-119146320D01*
X160393380Y-119059960D01*
X160393380Y-118999000D01*
X160401000Y-118884700D01*
X160451800Y-118831360D01*
X160578800Y-118813580D01*
X160685480Y-118813580D01*
X160863280Y-118816120D01*
X160944560Y-118849140D01*
X160972500Y-118935500D01*
X160975040Y-119021860D01*
X160967420Y-119148860D01*
X160926780Y-119207280D01*
X160815020Y-119217440D01*
X161764980Y-119217440D01*
X161737040Y-119037100D01*
X161665920Y-118816120D01*
X161635440Y-118755160D01*
X158716980Y-118755160D01*
X158716980Y-118430040D01*
X158719520Y-118237000D01*
X158744920Y-118140480D01*
X158810960Y-118107460D01*
X158902400Y-118102380D01*
X159034480Y-118120160D01*
X159103060Y-118193820D01*
X159131000Y-118346220D01*
X159128460Y-118516400D01*
X159105600Y-118658640D01*
X159026860Y-118719600D01*
X158920180Y-118734840D01*
X158716980Y-118755160D01*
X161635440Y-118755160D01*
X161620200Y-118717060D01*
X160103820Y-118717060D01*
X159522160Y-118717060D01*
X159405320Y-118706900D01*
X159344360Y-118658640D01*
X159318960Y-118534180D01*
X159308800Y-118409720D01*
X159288480Y-118102380D01*
X159522160Y-118102380D01*
X159755840Y-118102380D01*
X159735520Y-118409720D01*
X159717740Y-118595140D01*
X159682180Y-118684040D01*
X159603440Y-118711980D01*
X159522160Y-118717060D01*
X160103820Y-118717060D01*
X159984440Y-118706900D01*
X159926020Y-118658640D01*
X159898080Y-118534180D01*
X159887920Y-118409720D01*
X159870140Y-118102380D01*
X160103820Y-118102380D01*
X160334960Y-118102380D01*
X160317180Y-118409720D01*
X160299400Y-118595140D01*
X160261300Y-118684040D01*
X160182560Y-118711980D01*
X160103820Y-118717060D01*
X161620200Y-118717060D01*
X161569400Y-118605300D01*
X161447480Y-118379240D01*
X161328100Y-118191280D01*
X161236660Y-118076980D01*
X161170620Y-118005860D01*
X161155380Y-117939820D01*
X161196020Y-117845840D01*
X158503620Y-117845840D01*
X158153100Y-117802660D01*
X157820360Y-117657880D01*
X157528260Y-117411500D01*
X157419040Y-117274340D01*
X157332680Y-117124480D01*
X157284420Y-116961920D01*
X157266640Y-116740940D01*
X157264100Y-116580920D01*
X157269180Y-116326920D01*
X157292040Y-116154200D01*
X157350460Y-116019580D01*
X157452060Y-115879880D01*
X157462220Y-115867180D01*
X157683200Y-115648740D01*
X157957520Y-115470940D01*
X158236920Y-115356640D01*
X158422340Y-115328700D01*
X158683960Y-115356640D01*
X158943040Y-115425220D01*
X159146240Y-115524280D01*
X159204660Y-115570000D01*
X159285940Y-115636040D01*
X159351980Y-115610640D01*
X159425640Y-115516660D01*
X159517080Y-115415060D01*
X159682180Y-115247420D01*
X159895540Y-115039140D01*
X160139380Y-114810540D01*
X160169860Y-114782600D01*
X160797240Y-114206020D01*
X160921700Y-114360960D01*
X161048700Y-114515900D01*
X160609280Y-114940080D01*
X160367980Y-115166140D01*
X160124140Y-115394740D01*
X159910780Y-115585240D01*
X159859980Y-115628420D01*
X159552640Y-115892580D01*
X159651700Y-116123720D01*
X159740600Y-116499640D01*
X159705040Y-116883180D01*
X159649160Y-117055900D01*
X159445960Y-117393720D01*
X159171640Y-117637560D01*
X158851600Y-117789960D01*
X158503620Y-117845840D01*
X161196020Y-117845840D01*
X161198560Y-117843300D01*
X161310320Y-117678200D01*
X161325560Y-117662960D01*
X161587180Y-117190520D01*
X161752280Y-116667280D01*
X161818320Y-116123720D01*
X161780220Y-115592860D01*
X161671000Y-115199160D01*
X161411920Y-114686080D01*
X161063940Y-114254280D01*
X160639760Y-113919000D01*
X160154620Y-113682780D01*
X159626300Y-113553240D01*
X159062420Y-113540540D01*
X158767780Y-113583720D01*
X158348680Y-113695480D01*
X157990540Y-113868200D01*
X157650180Y-114122200D01*
X157520640Y-114239040D01*
X157177740Y-114645440D01*
X156926280Y-115115340D01*
X156778960Y-115623340D01*
X156728160Y-116149120D01*
X156781500Y-116669820D01*
X156936440Y-117167660D01*
X157195520Y-117617240D01*
X157276800Y-117718840D01*
X157434280Y-117906800D01*
X157276800Y-118117620D01*
X156992320Y-118582440D01*
X156811980Y-119100600D01*
X156768800Y-119321580D01*
X156733240Y-119882920D01*
X156822140Y-120423940D01*
X157017720Y-120929400D01*
X157317440Y-121381520D01*
X157716220Y-121765060D01*
X158196280Y-122062240D01*
X158198820Y-122064780D01*
X158402020Y-122156220D01*
X158572200Y-122214640D01*
X158752540Y-122247660D01*
X158978600Y-122260360D01*
X159296100Y-122265440D01*
X159296100Y-122265440D01*
X159296100Y-122265440D01*
G37*
X159296100Y-122265440D02*
X159623760Y-122257820D01*
X159857440Y-122242580D01*
X160037780Y-122207020D01*
X160202880Y-122151140D01*
X160296860Y-122107960D01*
X160797240Y-121808240D01*
X160886140Y-121724420D01*
X158135320Y-121724420D01*
X158135320Y-121396760D01*
X158137860Y-121203720D01*
X158163260Y-121109740D01*
X158229300Y-121074180D01*
X158318200Y-121069100D01*
X158480760Y-121086880D01*
X158559500Y-121155460D01*
X158577280Y-121305320D01*
X158572200Y-121422160D01*
X158551880Y-121589800D01*
X158498540Y-121671080D01*
X158381700Y-121699020D01*
X158343600Y-121704100D01*
X158135320Y-121724420D01*
X160886140Y-121724420D01*
X160896300Y-121716800D01*
X160327340Y-121716800D01*
X160103820Y-121716800D01*
X159877760Y-121716800D01*
X159748220Y-121716800D01*
X159522160Y-121716800D01*
X159296100Y-121716800D01*
X159166560Y-121716800D01*
X158943040Y-121716800D01*
X158716980Y-121716800D01*
X158716980Y-121394220D01*
X158716980Y-121069100D01*
X158943040Y-121069100D01*
X159166560Y-121069100D01*
X159166560Y-121394220D01*
X159166560Y-121716800D01*
X159296100Y-121716800D01*
X159296100Y-121394220D01*
X159296100Y-121069100D01*
X159522160Y-121069100D01*
X159748220Y-121069100D01*
X159748220Y-121394220D01*
X159748220Y-121716800D01*
X159877760Y-121716800D01*
X159877760Y-121394220D01*
X159877760Y-121069100D01*
X160103820Y-121069100D01*
X160327340Y-121069100D01*
X160327340Y-121394220D01*
X160327340Y-121716800D01*
X160896300Y-121716800D01*
X161196020Y-121434860D01*
X161483040Y-121005600D01*
X160685480Y-121005600D01*
X158071820Y-121005600D01*
X157744160Y-121005600D01*
X157416500Y-121005600D01*
X157436820Y-120797320D01*
X157457140Y-120670320D01*
X157513020Y-120604280D01*
X157637480Y-120576340D01*
X157764480Y-120566180D01*
X158071820Y-120548400D01*
X158071820Y-120777000D01*
X158071820Y-121005600D01*
X160685480Y-121005600D01*
X160505140Y-121000520D01*
X160421320Y-120967500D01*
X160393380Y-120881140D01*
X160393380Y-120779540D01*
X160398460Y-120639840D01*
X160439100Y-120576340D01*
X160553400Y-120556020D01*
X160685480Y-120556020D01*
X160863280Y-120558560D01*
X160944560Y-120591580D01*
X160972500Y-120677940D01*
X160975040Y-120779540D01*
X160967420Y-120919240D01*
X160926780Y-120985280D01*
X160812480Y-121003060D01*
X160685480Y-121005600D01*
X161483040Y-121005600D01*
X161505900Y-120975120D01*
X161683700Y-120573800D01*
X161726880Y-120426480D01*
X160685480Y-120426480D01*
X158071820Y-120426480D01*
X157749240Y-120426480D01*
X157424120Y-120426480D01*
X157424120Y-120200420D01*
X157424120Y-119974360D01*
X157749240Y-119974360D01*
X158071820Y-119974360D01*
X158071820Y-120200420D01*
X158071820Y-120426480D01*
X160685480Y-120426480D01*
X160505140Y-120418860D01*
X160421320Y-120385840D01*
X160393380Y-120299480D01*
X160393380Y-120200420D01*
X160398460Y-120060720D01*
X160439100Y-119994680D01*
X160553400Y-119974360D01*
X160685480Y-119974360D01*
X160863280Y-119979440D01*
X160944560Y-120012460D01*
X160972500Y-120098820D01*
X160975040Y-120200420D01*
X160967420Y-120337580D01*
X160926780Y-120403620D01*
X160812480Y-120423940D01*
X160685480Y-120426480D01*
X161726880Y-120426480D01*
X161757360Y-120337580D01*
X161798000Y-120126760D01*
X161808160Y-119880380D01*
X161805620Y-119829580D01*
X160685480Y-119829580D01*
X160505140Y-119824500D01*
X160464500Y-119811800D01*
X157858460Y-119811800D01*
X157749240Y-119811800D01*
X157568900Y-119806720D01*
X157480000Y-119771160D01*
X157446980Y-119682260D01*
X157436820Y-119603520D01*
X157416500Y-119395240D01*
X157749240Y-119395240D01*
X158079440Y-119395240D01*
X158056580Y-119603520D01*
X158038800Y-119733060D01*
X157985460Y-119791480D01*
X157858460Y-119811800D01*
X160464500Y-119811800D01*
X160421320Y-119796560D01*
X160393380Y-119710200D01*
X160393380Y-119613680D01*
X160398460Y-119476520D01*
X160441640Y-119413020D01*
X160555940Y-119395240D01*
X160685480Y-119395240D01*
X160863280Y-119397780D01*
X160944560Y-119430800D01*
X160972500Y-119517160D01*
X160975040Y-119608600D01*
X160967420Y-119740680D01*
X160921700Y-119804180D01*
X160807400Y-119824500D01*
X160685480Y-119829580D01*
X161805620Y-119829580D01*
X161800540Y-119598440D01*
X161777680Y-119278400D01*
X161764980Y-119217440D01*
X160815020Y-119217440D01*
X160782000Y-119214900D01*
X157505400Y-119214900D01*
X157467300Y-119171720D01*
X157439360Y-119042180D01*
X157439360Y-119026940D01*
X157416500Y-118818660D01*
X157789880Y-118800880D01*
X158163260Y-118780560D01*
X158160720Y-118747540D01*
X157845760Y-118747540D01*
X157586680Y-118747540D01*
X157553660Y-118717060D01*
X157586680Y-118684040D01*
X157617160Y-118717060D01*
X157586680Y-118747540D01*
X157845760Y-118747540D01*
X157812740Y-118717060D01*
X157845760Y-118684040D01*
X157878780Y-118717060D01*
X157845760Y-118747540D01*
X158160720Y-118747540D01*
X158142940Y-118442740D01*
X158135320Y-118244620D01*
X158153100Y-118143020D01*
X158211520Y-118107460D01*
X158318200Y-118102380D01*
X158442660Y-118112540D01*
X158503620Y-118168420D01*
X158529020Y-118305580D01*
X158534100Y-118376700D01*
X158544260Y-118587520D01*
X158529020Y-118699280D01*
X158475680Y-118742460D01*
X158422340Y-118747540D01*
X158341060Y-118775480D01*
X158335980Y-118795800D01*
X158330900Y-118945660D01*
X158249620Y-118996460D01*
X158198820Y-118986300D01*
X158097220Y-118988840D01*
X158071820Y-119077740D01*
X158046420Y-119159020D01*
X157952440Y-119192040D01*
X157812740Y-119199660D01*
X157634940Y-119202200D01*
X157520640Y-119212360D01*
X157505400Y-119214900D01*
X160782000Y-119214900D01*
X160685480Y-119209820D01*
X160505140Y-119189500D01*
X160418780Y-119146320D01*
X160393380Y-119059960D01*
X160393380Y-118999000D01*
X160401000Y-118884700D01*
X160451800Y-118831360D01*
X160578800Y-118813580D01*
X160685480Y-118813580D01*
X160863280Y-118816120D01*
X160944560Y-118849140D01*
X160972500Y-118935500D01*
X160975040Y-119021860D01*
X160967420Y-119148860D01*
X160926780Y-119207280D01*
X160815020Y-119217440D01*
X161764980Y-119217440D01*
X161737040Y-119037100D01*
X161665920Y-118816120D01*
X161635440Y-118755160D01*
X158716980Y-118755160D01*
X158716980Y-118430040D01*
X158719520Y-118237000D01*
X158744920Y-118140480D01*
X158810960Y-118107460D01*
X158902400Y-118102380D01*
X159034480Y-118120160D01*
X159103060Y-118193820D01*
X159131000Y-118346220D01*
X159128460Y-118516400D01*
X159105600Y-118658640D01*
X159026860Y-118719600D01*
X158920180Y-118734840D01*
X158716980Y-118755160D01*
X161635440Y-118755160D01*
X161620200Y-118717060D01*
X160103820Y-118717060D01*
X159522160Y-118717060D01*
X159405320Y-118706900D01*
X159344360Y-118658640D01*
X159318960Y-118534180D01*
X159308800Y-118409720D01*
X159288480Y-118102380D01*
X159522160Y-118102380D01*
X159755840Y-118102380D01*
X159735520Y-118409720D01*
X159717740Y-118595140D01*
X159682180Y-118684040D01*
X159603440Y-118711980D01*
X159522160Y-118717060D01*
X160103820Y-118717060D01*
X159984440Y-118706900D01*
X159926020Y-118658640D01*
X159898080Y-118534180D01*
X159887920Y-118409720D01*
X159870140Y-118102380D01*
X160103820Y-118102380D01*
X160334960Y-118102380D01*
X160317180Y-118409720D01*
X160299400Y-118595140D01*
X160261300Y-118684040D01*
X160182560Y-118711980D01*
X160103820Y-118717060D01*
X161620200Y-118717060D01*
X161569400Y-118605300D01*
X161447480Y-118379240D01*
X161328100Y-118191280D01*
X161236660Y-118076980D01*
X161170620Y-118005860D01*
X161155380Y-117939820D01*
X161196020Y-117845840D01*
X158503620Y-117845840D01*
X158153100Y-117802660D01*
X157820360Y-117657880D01*
X157528260Y-117411500D01*
X157419040Y-117274340D01*
X157332680Y-117124480D01*
X157284420Y-116961920D01*
X157266640Y-116740940D01*
X157264100Y-116580920D01*
X157269180Y-116326920D01*
X157292040Y-116154200D01*
X157350460Y-116019580D01*
X157452060Y-115879880D01*
X157462220Y-115867180D01*
X157683200Y-115648740D01*
X157957520Y-115470940D01*
X158236920Y-115356640D01*
X158422340Y-115328700D01*
X158683960Y-115356640D01*
X158943040Y-115425220D01*
X159146240Y-115524280D01*
X159204660Y-115570000D01*
X159285940Y-115636040D01*
X159351980Y-115610640D01*
X159425640Y-115516660D01*
X159517080Y-115415060D01*
X159682180Y-115247420D01*
X159895540Y-115039140D01*
X160139380Y-114810540D01*
X160169860Y-114782600D01*
X160797240Y-114206020D01*
X160921700Y-114360960D01*
X161048700Y-114515900D01*
X160609280Y-114940080D01*
X160367980Y-115166140D01*
X160124140Y-115394740D01*
X159910780Y-115585240D01*
X159859980Y-115628420D01*
X159552640Y-115892580D01*
X159651700Y-116123720D01*
X159740600Y-116499640D01*
X159705040Y-116883180D01*
X159649160Y-117055900D01*
X159445960Y-117393720D01*
X159171640Y-117637560D01*
X158851600Y-117789960D01*
X158503620Y-117845840D01*
X161196020Y-117845840D01*
X161198560Y-117843300D01*
X161310320Y-117678200D01*
X161325560Y-117662960D01*
X161587180Y-117190520D01*
X161752280Y-116667280D01*
X161818320Y-116123720D01*
X161780220Y-115592860D01*
X161671000Y-115199160D01*
X161411920Y-114686080D01*
X161063940Y-114254280D01*
X160639760Y-113919000D01*
X160154620Y-113682780D01*
X159626300Y-113553240D01*
X159062420Y-113540540D01*
X158767780Y-113583720D01*
X158348680Y-113695480D01*
X157990540Y-113868200D01*
X157650180Y-114122200D01*
X157520640Y-114239040D01*
X157177740Y-114645440D01*
X156926280Y-115115340D01*
X156778960Y-115623340D01*
X156728160Y-116149120D01*
X156781500Y-116669820D01*
X156936440Y-117167660D01*
X157195520Y-117617240D01*
X157276800Y-117718840D01*
X157434280Y-117906800D01*
X157276800Y-118117620D01*
X156992320Y-118582440D01*
X156811980Y-119100600D01*
X156768800Y-119321580D01*
X156733240Y-119882920D01*
X156822140Y-120423940D01*
X157017720Y-120929400D01*
X157317440Y-121381520D01*
X157716220Y-121765060D01*
X158196280Y-122062240D01*
X158198820Y-122064780D01*
X158402020Y-122156220D01*
X158572200Y-122214640D01*
X158752540Y-122247660D01*
X158978600Y-122260360D01*
X159296100Y-122265440D01*
X159296100Y-122265440D01*
G36*
X158356300Y-117444520D02*
X158650940Y-117426740D01*
X158927800Y-117320060D01*
X159156400Y-117137180D01*
X159308800Y-116893340D01*
X159359600Y-116619020D01*
X159331660Y-116451380D01*
X159260540Y-116258340D01*
X159247840Y-116238020D01*
X159049720Y-115973860D01*
X158798260Y-115808760D01*
X158513780Y-115742720D01*
X158224220Y-115775740D01*
X157957520Y-115912900D01*
X157739080Y-116149120D01*
X157721300Y-116177060D01*
X157627320Y-116451380D01*
X157637480Y-116746020D01*
X157739080Y-117027960D01*
X157921960Y-117259100D01*
X158064200Y-117358160D01*
X158356300Y-117444520D01*
X158356300Y-117444520D01*
X158356300Y-117444520D01*
G37*
X158356300Y-117444520D02*
X158650940Y-117426740D01*
X158927800Y-117320060D01*
X159156400Y-117137180D01*
X159308800Y-116893340D01*
X159359600Y-116619020D01*
X159331660Y-116451380D01*
X159260540Y-116258340D01*
X159247840Y-116238020D01*
X159049720Y-115973860D01*
X158798260Y-115808760D01*
X158513780Y-115742720D01*
X158224220Y-115775740D01*
X157957520Y-115912900D01*
X157739080Y-116149120D01*
X157721300Y-116177060D01*
X157627320Y-116451380D01*
X157637480Y-116746020D01*
X157739080Y-117027960D01*
X157921960Y-117259100D01*
X158064200Y-117358160D01*
X158356300Y-117444520D01*
X158356300Y-117444520D01*
D10*
X164225600Y-109847000D02*
X164225600Y-108847000D01*
X162875600Y-108847000D02*
X162875600Y-109847000D01*
X166029000Y-109821600D02*
X166029000Y-108821600D01*
X164679000Y-108821600D02*
X164679000Y-109821600D01*
X152450000Y-93225000D02*
X153650000Y-93225000D01*
X152415000Y-121155000D02*
X151780000Y-121790000D01*
X151780000Y-121790000D02*
X151780000Y-123060000D01*
X151780000Y-123060000D02*
X152415000Y-123695000D01*
X152415000Y-123695000D02*
X153685000Y-123695000D01*
X153685000Y-123695000D02*
X154320000Y-123060000D01*
X154320000Y-123060000D02*
X154320000Y-121790000D01*
X154320000Y-121790000D02*
X153685000Y-121155000D01*
X153685000Y-93215000D02*
X154320000Y-93850000D01*
X154320000Y-93850000D02*
X154320000Y-95120000D01*
X154320000Y-95120000D02*
X153685000Y-95755000D01*
X153685000Y-95755000D02*
X154320000Y-96390000D01*
X154320000Y-96390000D02*
X154320000Y-97660000D01*
X154320000Y-97660000D02*
X153685000Y-98295000D01*
X153685000Y-98295000D02*
X154320000Y-98930000D01*
X154320000Y-98930000D02*
X154320000Y-100200000D01*
X154320000Y-100200000D02*
X153685000Y-100835000D01*
X153685000Y-100835000D02*
X154320000Y-101470000D01*
X154320000Y-101470000D02*
X154320000Y-102740000D01*
X154320000Y-102740000D02*
X153685000Y-103375000D01*
X153685000Y-103375000D02*
X154320000Y-104010000D01*
X154320000Y-104010000D02*
X154320000Y-105280000D01*
X154320000Y-105280000D02*
X153685000Y-105915000D01*
X153685000Y-105915000D02*
X154320000Y-106550000D01*
X154320000Y-106550000D02*
X154320000Y-107820000D01*
X154320000Y-107820000D02*
X153685000Y-108455000D01*
X153685000Y-108455000D02*
X154320000Y-109090000D01*
X154320000Y-109090000D02*
X154320000Y-110360000D01*
X154320000Y-110360000D02*
X153685000Y-110995000D01*
X153685000Y-110995000D02*
X154320000Y-111630000D01*
X154320000Y-111630000D02*
X154320000Y-112900000D01*
X154320000Y-112900000D02*
X153685000Y-113535000D01*
X153685000Y-113535000D02*
X154320000Y-114170000D01*
X154320000Y-114170000D02*
X154320000Y-115440000D01*
X154320000Y-115440000D02*
X153685000Y-116075000D01*
X153685000Y-116075000D02*
X154320000Y-116710000D01*
X154320000Y-116710000D02*
X154320000Y-117980000D01*
X154320000Y-117980000D02*
X153685000Y-118615000D01*
X153685000Y-118615000D02*
X154320000Y-119250000D01*
X154320000Y-119250000D02*
X154320000Y-120520000D01*
X154320000Y-120520000D02*
X153685000Y-121155000D01*
X152415000Y-121155000D02*
X151780000Y-120520000D01*
X151780000Y-120520000D02*
X151780000Y-119250000D01*
X151780000Y-119250000D02*
X152415000Y-118615000D01*
X152415000Y-118615000D02*
X151780000Y-117980000D01*
X151780000Y-117980000D02*
X151780000Y-116710000D01*
X151780000Y-116710000D02*
X152415000Y-116075000D01*
X152415000Y-116075000D02*
X151780000Y-115440000D01*
X151780000Y-115440000D02*
X151780000Y-114170000D01*
X151780000Y-114170000D02*
X152415000Y-113535000D01*
X152415000Y-113535000D02*
X151780000Y-112900000D01*
X151780000Y-112900000D02*
X151780000Y-111630000D01*
X151780000Y-111630000D02*
X152415000Y-110995000D01*
X152415000Y-110995000D02*
X151780000Y-110360000D01*
X151780000Y-110360000D02*
X151780000Y-109090000D01*
X151780000Y-109090000D02*
X152415000Y-108455000D01*
X152415000Y-108455000D02*
X151780000Y-107820000D01*
X151780000Y-107820000D02*
X151780000Y-106550000D01*
X151780000Y-106550000D02*
X152415000Y-105915000D01*
X152415000Y-105915000D02*
X151780000Y-105280000D01*
X151780000Y-105280000D02*
X151780000Y-104010000D01*
X151780000Y-104010000D02*
X152415000Y-103375000D01*
X152415000Y-103375000D02*
X151780000Y-102740000D01*
X151780000Y-102740000D02*
X151780000Y-101470000D01*
X151780000Y-101470000D02*
X152415000Y-100835000D01*
X152415000Y-100835000D02*
X151780000Y-100200000D01*
X151780000Y-100200000D02*
X151780000Y-98930000D01*
X151780000Y-98930000D02*
X152415000Y-98295000D01*
X152415000Y-98295000D02*
X151780000Y-97660000D01*
X151780000Y-97660000D02*
X151780000Y-96390000D01*
X151780000Y-96390000D02*
X152415000Y-95755000D01*
X152415000Y-95755000D02*
X151780000Y-95120000D01*
X151780000Y-95120000D02*
X151780000Y-93850000D01*
X151780000Y-93850000D02*
X152415000Y-93215000D01*
X168900000Y-123700000D02*
X167700000Y-123700000D01*
X168935000Y-95770000D02*
X169570000Y-95135000D01*
X169570000Y-95135000D02*
X169570000Y-93865000D01*
X169570000Y-93865000D02*
X168935000Y-93230000D01*
X168935000Y-93230000D02*
X167665000Y-93230000D01*
X167665000Y-93230000D02*
X167030000Y-93865000D01*
X167030000Y-93865000D02*
X167030000Y-95135000D01*
X167030000Y-95135000D02*
X167665000Y-95770000D01*
X167665000Y-123710000D02*
X167030000Y-123075000D01*
X167030000Y-123075000D02*
X167030000Y-121805000D01*
X167030000Y-121805000D02*
X167665000Y-121170000D01*
X167665000Y-121170000D02*
X167030000Y-120535000D01*
X167030000Y-120535000D02*
X167030000Y-119265000D01*
X167030000Y-119265000D02*
X167665000Y-118630000D01*
X167665000Y-118630000D02*
X167030000Y-117995000D01*
X167030000Y-117995000D02*
X167030000Y-116725000D01*
X167030000Y-116725000D02*
X167665000Y-116090000D01*
X167665000Y-116090000D02*
X167030000Y-115455000D01*
X167030000Y-115455000D02*
X167030000Y-114185000D01*
X167030000Y-114185000D02*
X167665000Y-113550000D01*
X167665000Y-113550000D02*
X167030000Y-112915000D01*
X167030000Y-112915000D02*
X167030000Y-111645000D01*
X167030000Y-111645000D02*
X167665000Y-111010000D01*
X167665000Y-111010000D02*
X167030000Y-110375000D01*
X167030000Y-110375000D02*
X167030000Y-109105000D01*
X167030000Y-109105000D02*
X167665000Y-108470000D01*
X167665000Y-108470000D02*
X167030000Y-107835000D01*
X167030000Y-107835000D02*
X167030000Y-106565000D01*
X167030000Y-106565000D02*
X167665000Y-105930000D01*
X167665000Y-105930000D02*
X167030000Y-105295000D01*
X167030000Y-105295000D02*
X167030000Y-104025000D01*
X167030000Y-104025000D02*
X167665000Y-103390000D01*
X167665000Y-103390000D02*
X167030000Y-102755000D01*
X167030000Y-102755000D02*
X167030000Y-101485000D01*
X167030000Y-101485000D02*
X167665000Y-100850000D01*
X167665000Y-100850000D02*
X167030000Y-100215000D01*
X167030000Y-100215000D02*
X167030000Y-98945000D01*
X167030000Y-98945000D02*
X167665000Y-98310000D01*
X167665000Y-98310000D02*
X167030000Y-97675000D01*
X167030000Y-97675000D02*
X167030000Y-96405000D01*
X167030000Y-96405000D02*
X167665000Y-95770000D01*
X168935000Y-95770000D02*
X169570000Y-96405000D01*
X169570000Y-96405000D02*
X169570000Y-97675000D01*
X169570000Y-97675000D02*
X168935000Y-98310000D01*
X168935000Y-98310000D02*
X169570000Y-98945000D01*
X169570000Y-98945000D02*
X169570000Y-100215000D01*
X169570000Y-100215000D02*
X168935000Y-100850000D01*
X168935000Y-100850000D02*
X169570000Y-101485000D01*
X169570000Y-101485000D02*
X169570000Y-102755000D01*
X169570000Y-102755000D02*
X168935000Y-103390000D01*
X168935000Y-103390000D02*
X169570000Y-104025000D01*
X169570000Y-104025000D02*
X169570000Y-105295000D01*
X169570000Y-105295000D02*
X168935000Y-105930000D01*
X168935000Y-105930000D02*
X169570000Y-106565000D01*
X169570000Y-106565000D02*
X169570000Y-107835000D01*
X169570000Y-107835000D02*
X168935000Y-108470000D01*
X168935000Y-108470000D02*
X169570000Y-109105000D01*
X169570000Y-109105000D02*
X169570000Y-110375000D01*
X169570000Y-110375000D02*
X168935000Y-111010000D01*
X168935000Y-111010000D02*
X169570000Y-111645000D01*
X169570000Y-111645000D02*
X169570000Y-112915000D01*
X169570000Y-112915000D02*
X168935000Y-113550000D01*
X168935000Y-113550000D02*
X169570000Y-114185000D01*
X169570000Y-114185000D02*
X169570000Y-115455000D01*
X169570000Y-115455000D02*
X168935000Y-116090000D01*
X168935000Y-116090000D02*
X169570000Y-116725000D01*
X169570000Y-116725000D02*
X169570000Y-117995000D01*
X169570000Y-117995000D02*
X168935000Y-118630000D01*
X168935000Y-118630000D02*
X169570000Y-119265000D01*
X169570000Y-119265000D02*
X169570000Y-120535000D01*
X169570000Y-120535000D02*
X168935000Y-121170000D01*
X168935000Y-121170000D02*
X169570000Y-121805000D01*
X169570000Y-121805000D02*
X169570000Y-123075000D01*
X169570000Y-123075000D02*
X168935000Y-123710000D01*
%LPC*%
D15*
X165455600Y-116154200D03*
D16*
X165455600Y-113614200D03*
D15*
X165455600Y-105689400D03*
D16*
X165455600Y-103149400D03*
D17*
X163550600Y-108597000D03*
X163550600Y-110097000D03*
X165354000Y-108571600D03*
X165354000Y-110071600D03*
D18*
X163300000Y-95575000D03*
D19*
X164500000Y-92925000D03*
D18*
X158450000Y-95575000D03*
D19*
X157250000Y-92925000D03*
D15*
X153050000Y-122425000D03*
D20*
X153050000Y-119885000D03*
X153050000Y-117345000D03*
X153050000Y-114805000D03*
X153050000Y-112265000D03*
X153050000Y-109725000D03*
X153050000Y-107185000D03*
X153050000Y-104645000D03*
X153050000Y-102105000D03*
X153050000Y-99565000D03*
X153050000Y-97025000D03*
X153050000Y-94485000D03*
D15*
X168300000Y-94500000D03*
D20*
X168300000Y-97040000D03*
X168300000Y-99580000D03*
X168300000Y-102120000D03*
X168300000Y-104660000D03*
X168300000Y-107200000D03*
X168300000Y-109740000D03*
X168300000Y-112280000D03*
X168300000Y-114820000D03*
X168300000Y-117360000D03*
X168300000Y-119900000D03*
X168300000Y-122440000D03*
M02*
