G04 #@! TF.FileFunction,Copper,L2,Bot,Signal*
%FSLAX46Y46*%
G04 Gerber Fmt 4.6, Leading zero omitted, Abs format (unit mm)*
G04 Created by KiCad (PCBNEW 4.0.1-stable) date 01-Oct-16 1:06:19 PM*
%MOMM*%
G01*
G04 APERTURE LIST*
%ADD10C,0.150000*%
%ADD11C,0.100000*%
%ADD12C,2.032000*%
%ADD13O,2.032000X2.032000*%
%ADD14R,0.900000X0.500000*%
%ADD15C,1.500000*%
%ADD16O,2.200000X2.500000*%
%ADD17O,2.032000X1.727200*%
%ADD18C,0.500000*%
%ADD19C,0.889000*%
%ADD20C,0.130000*%
%ADD21C,0.161000*%
%ADD22C,0.254000*%
G04 APERTURE END LIST*
D10*
D11*
X169748200Y-123545600D02*
X169748200Y-90500200D01*
X151648400Y-123076200D02*
G75*
G03X153398400Y-125326200I2000000J-250000D01*
G01*
X154923800Y-125326200D02*
X153423800Y-125326200D01*
X155423800Y-125826200D02*
X154923800Y-125326200D01*
X165449200Y-125826200D02*
X155449200Y-125826200D01*
X165974600Y-125326200D02*
X165474600Y-125826200D01*
X167474600Y-125326200D02*
X165974600Y-125326200D01*
X151650700Y-90487500D02*
X151650700Y-123075700D01*
X151648400Y-90500000D02*
X157148400Y-90500000D01*
X157173800Y-90500000D02*
X157923800Y-91250000D01*
X164449200Y-90500000D02*
X163699200Y-91250000D01*
X164439600Y-90500200D02*
X169748200Y-90500200D01*
X163699200Y-91250000D02*
X157949200Y-91250000D01*
X167500000Y-125326200D02*
G75*
G03X169750000Y-123576200I250000J2000000D01*
G01*
D12*
X165455600Y-116154200D03*
D13*
X165455600Y-113614200D03*
D12*
X165455600Y-105689400D03*
D13*
X165455600Y-103149400D03*
D14*
X163550600Y-108597000D03*
X163550600Y-110097000D03*
X165354000Y-108571600D03*
X165354000Y-110071600D03*
D15*
X163300000Y-95575000D03*
D16*
X164500000Y-92925000D03*
D15*
X158450000Y-95575000D03*
D16*
X157250000Y-92925000D03*
D12*
X153050000Y-122425000D03*
D17*
X153050000Y-119885000D03*
X153050000Y-117345000D03*
X153050000Y-114805000D03*
X153050000Y-112265000D03*
X153050000Y-109725000D03*
X153050000Y-107185000D03*
X153050000Y-104645000D03*
X153050000Y-102105000D03*
X153050000Y-99565000D03*
X153050000Y-97025000D03*
X153050000Y-94485000D03*
D12*
X168300000Y-94500000D03*
D17*
X168300000Y-97040000D03*
X168300000Y-99580000D03*
X168300000Y-102120000D03*
X168300000Y-104660000D03*
X168300000Y-107200000D03*
X168300000Y-109740000D03*
X168300000Y-112280000D03*
X168300000Y-114820000D03*
X168300000Y-117360000D03*
X168300000Y-119900000D03*
X168300000Y-122440000D03*
D18*
X157911800Y-118491000D03*
X156540200Y-116306600D03*
X162661600Y-110109000D03*
X158572200Y-106984800D03*
X166979600Y-103428800D03*
X163347400Y-97917000D03*
X159791400Y-96977200D03*
X158953200Y-121615200D03*
X159131000Y-120523000D03*
X156387800Y-115366800D03*
X158800800Y-116408200D03*
X160324800Y-116255800D03*
X160350200Y-117576600D03*
X159588200Y-94335600D03*
X164033200Y-94564200D03*
X161823400Y-111429800D03*
X164998400Y-97840800D03*
X165989000Y-95859600D03*
X157200600Y-115011200D03*
X157556200Y-108254800D03*
X163245800Y-103530400D03*
X159867600Y-107391200D03*
X158343600Y-109067600D03*
X164566600Y-120878600D03*
X164007800Y-113944400D03*
X164007800Y-104775000D03*
X166928800Y-94030800D03*
X160604200Y-113969800D03*
X163576000Y-123469400D03*
X162763200Y-94513400D03*
X164363400Y-101498400D03*
X166420800Y-92125800D03*
X155244800Y-103428800D03*
X153898600Y-105892600D03*
X154406600Y-108991400D03*
X154990800Y-118211600D03*
X166116000Y-94538800D03*
X163474400Y-114935000D03*
X154940000Y-99085400D03*
X154965400Y-104546400D03*
X160832800Y-105435400D03*
X157988000Y-104724200D03*
D19*
X156286200Y-114460020D03*
D18*
X163144200Y-107696000D03*
X165150800Y-98729800D03*
X160858200Y-96977200D03*
X164388800Y-99847400D03*
X161518600Y-96977200D03*
X158902400Y-93218000D03*
X157276800Y-97409000D03*
D20*
X157911800Y-118491000D02*
X157784800Y-118364000D01*
X157784800Y-118364000D02*
X156743400Y-118364000D01*
X156743400Y-118364000D02*
X156540200Y-118160800D01*
X156540200Y-118160800D02*
X156540200Y-116306600D01*
X165328600Y-110097000D02*
X165354000Y-110071600D01*
X163550600Y-110097000D02*
X165328600Y-110097000D01*
X162673600Y-110097000D02*
X163550600Y-110097000D01*
X162661600Y-110109000D02*
X162673600Y-110097000D01*
X161684400Y-110097000D02*
X158572200Y-106984800D01*
X163550600Y-110097000D02*
X161684400Y-110097000D01*
X166979600Y-103428800D02*
X166801800Y-103606600D01*
X166801800Y-103606600D02*
X166801800Y-109321600D01*
X166801800Y-109321600D02*
X166051800Y-110071600D01*
X166051800Y-110071600D02*
X165354000Y-110071600D01*
D21*
X163347400Y-97917000D02*
X162991800Y-97561400D01*
X162991800Y-97561400D02*
X160248600Y-97561400D01*
X160248600Y-97561400D02*
X159791400Y-97104200D01*
X159791400Y-97104200D02*
X159791400Y-96977200D01*
D20*
X158953200Y-121615200D02*
X159131000Y-121437400D01*
X159131000Y-121437400D02*
X159131000Y-120523000D01*
X156387800Y-115366800D02*
X156845000Y-115824000D01*
X156845000Y-115824000D02*
X157505400Y-115824000D01*
X157505400Y-115824000D02*
X158216600Y-115112800D01*
X158216600Y-115112800D02*
X158216600Y-111302800D01*
X158216600Y-111302800D02*
X159410400Y-110109000D01*
X159410400Y-110109000D02*
X162661600Y-110109000D01*
X158800800Y-116408200D02*
X158953200Y-116255800D01*
X158953200Y-116255800D02*
X160324800Y-116255800D01*
X160350200Y-117576600D02*
X160324800Y-117551200D01*
X160324800Y-117551200D02*
X160324800Y-116255800D01*
X159588200Y-94335600D02*
X159588200Y-93599000D01*
X159588200Y-93599000D02*
X159740600Y-93446600D01*
X159740600Y-93446600D02*
X162331400Y-93446600D01*
X162331400Y-93446600D02*
X163322000Y-94437200D01*
X163322000Y-94437200D02*
X163906200Y-94437200D01*
X163906200Y-94437200D02*
X164033200Y-94564200D01*
X158800800Y-113080800D02*
X158800800Y-116408200D01*
X160528000Y-111353600D02*
X158800800Y-113080800D01*
X161747200Y-111353600D02*
X160528000Y-111353600D01*
X161823400Y-111429800D02*
X161747200Y-111353600D01*
X164998400Y-97840800D02*
X165989000Y-96850200D01*
X165989000Y-96850200D02*
X165989000Y-95859600D01*
X157200600Y-115011200D02*
X157556200Y-114655600D01*
X157556200Y-114655600D02*
X157556200Y-108254800D01*
X163245800Y-103530400D02*
X163347400Y-103632000D01*
X163347400Y-103632000D02*
X163347400Y-103886000D01*
X163347400Y-103886000D02*
X159867600Y-107365800D01*
X159867600Y-107365800D02*
X159867600Y-107391200D01*
X158343600Y-109067600D02*
X157556200Y-108280200D01*
X157556200Y-108280200D02*
X157556200Y-108254800D01*
X164566600Y-120878600D02*
X164134800Y-120446800D01*
X164134800Y-120446800D02*
X164134800Y-117221000D01*
X164134800Y-117221000D02*
X162814000Y-115900200D01*
X162814000Y-115900200D02*
X162814000Y-114782600D01*
X162814000Y-114782600D02*
X163652200Y-113944400D01*
X163652200Y-113944400D02*
X164007800Y-113944400D01*
X167030400Y-99580000D02*
X168300000Y-99580000D01*
X166852600Y-99580000D02*
X167030400Y-99580000D01*
X166662800Y-99580000D02*
X166852600Y-99580000D01*
X166090600Y-100152200D02*
X166662800Y-99580000D01*
X166090600Y-100634800D02*
X166090600Y-100152200D01*
X163830000Y-102895400D02*
X166090600Y-100634800D01*
X163830000Y-104597200D02*
X163830000Y-102895400D01*
X164007800Y-104775000D02*
X163830000Y-104597200D01*
X166903400Y-99390200D02*
X166903400Y-99580000D01*
X166903400Y-99618800D02*
X166864600Y-99580000D01*
X166852600Y-99593400D02*
X166852600Y-99580000D01*
X166864600Y-99581400D02*
X166852600Y-99593400D01*
X166864600Y-99580000D02*
X166864600Y-99581400D01*
X166903400Y-99580000D02*
X166903400Y-99618800D01*
X166903400Y-96266000D02*
X166903400Y-99390200D01*
X167005000Y-96164400D02*
X166903400Y-96266000D01*
X167005000Y-94107000D02*
X167005000Y-96164400D01*
X166928800Y-94030800D02*
X167005000Y-94107000D01*
X166903400Y-99339400D02*
X166903400Y-99390200D01*
X166878000Y-99364800D02*
X166903400Y-99339400D01*
X166662800Y-99580000D02*
X166878000Y-99364800D01*
X167093200Y-99580000D02*
X167042400Y-99580000D01*
X167042400Y-99580000D02*
X167030400Y-99568000D01*
X167030400Y-99568000D02*
X167030400Y-99580000D01*
X166878000Y-99364800D02*
X167093200Y-99580000D01*
X160604200Y-113969800D02*
X160832800Y-114198400D01*
X160832800Y-114198400D02*
X160832800Y-117398800D01*
X160832800Y-117398800D02*
X163576000Y-120142000D01*
X163576000Y-120142000D02*
X163576000Y-123469400D01*
X154943000Y-99565000D02*
X154946000Y-99568000D01*
X154946000Y-99568000D02*
X155879800Y-99568000D01*
X155879800Y-99568000D02*
X160934400Y-94513400D01*
X160934400Y-94513400D02*
X162763200Y-94513400D01*
X153050000Y-99565000D02*
X154943000Y-99565000D01*
X164363400Y-101498400D02*
X166065200Y-99796600D01*
X166065200Y-99796600D02*
X166065200Y-99542600D01*
X166065200Y-99542600D02*
X166598600Y-99009200D01*
X166598600Y-99009200D02*
X166598600Y-97332800D01*
X166598600Y-97332800D02*
X166649400Y-97282000D01*
X166649400Y-97282000D02*
X166649400Y-94386400D01*
X166649400Y-94386400D02*
X166370000Y-94107000D01*
X166370000Y-94107000D02*
X166370000Y-92176600D01*
X166370000Y-92176600D02*
X166420800Y-92125800D01*
X155244800Y-103428800D02*
X154406600Y-104267000D01*
X154406600Y-104267000D02*
X154406600Y-105359200D01*
X154406600Y-105359200D02*
X153898600Y-105867200D01*
X153898600Y-105867200D02*
X153898600Y-105892600D01*
X154406600Y-108991400D02*
X154574240Y-109159040D01*
X154574240Y-109159040D02*
X154574240Y-117795040D01*
X154574240Y-117795040D02*
X154990800Y-118211600D01*
X166116000Y-94538800D02*
X164084000Y-96570800D01*
X164084000Y-96570800D02*
X162737800Y-96570800D01*
X162737800Y-96570800D02*
X162331400Y-96164400D01*
X162331400Y-96164400D02*
X159715200Y-96164400D01*
X159715200Y-96164400D02*
X158343600Y-97536000D01*
X158343600Y-97536000D02*
X158343600Y-102743000D01*
X158343600Y-102743000D02*
X157657800Y-103428800D01*
X157657800Y-103428800D02*
X155244800Y-103428800D01*
D21*
X168235800Y-114884200D02*
X168300000Y-114820000D01*
X163474400Y-114935000D02*
X163525200Y-114884200D01*
X163525200Y-114884200D02*
X168235800Y-114884200D01*
D20*
X154505200Y-94485000D02*
X154686000Y-94665800D01*
X154686000Y-94665800D02*
X154686000Y-98831400D01*
X154686000Y-98831400D02*
X154940000Y-99085400D01*
X153050000Y-94485000D02*
X154505200Y-94485000D01*
D21*
X154965400Y-104546400D02*
X155270200Y-104241600D01*
X155270200Y-104241600D02*
X159791400Y-104241600D01*
X159791400Y-104241600D02*
X160832800Y-105283000D01*
X160832800Y-105283000D02*
X160832800Y-105435400D01*
D20*
X155527200Y-107185000D02*
X153050000Y-107185000D01*
X157988000Y-104724200D02*
X155527200Y-107185000D01*
X155019200Y-122425000D02*
X153050000Y-122425000D01*
X155735020Y-121709180D02*
X155019200Y-122425000D01*
X155735020Y-115011200D02*
X155735020Y-121709180D01*
X156286200Y-114460020D02*
X155735020Y-115011200D01*
X165354000Y-105791000D02*
X165455600Y-105689400D01*
X165354000Y-108571600D02*
X165354000Y-105791000D01*
X164592000Y-104013000D02*
X165455600Y-103149400D01*
X164592000Y-104800400D02*
X164592000Y-104013000D01*
X164134800Y-105257600D02*
X164592000Y-104800400D01*
X164109400Y-105257600D02*
X164134800Y-105257600D01*
X163906200Y-105460800D02*
X164109400Y-105257600D01*
X163906200Y-106934000D02*
X163906200Y-105460800D01*
X163144200Y-107696000D02*
X163906200Y-106934000D01*
X163550600Y-108102400D02*
X163144200Y-107696000D01*
X163550600Y-108597000D02*
X163550600Y-108102400D01*
X165150800Y-98729800D02*
X163347400Y-96875600D01*
X163347400Y-96875600D02*
X162331400Y-96875600D01*
X162331400Y-96875600D02*
X161975800Y-96520000D01*
X161975800Y-96520000D02*
X161315400Y-96520000D01*
X161315400Y-96520000D02*
X160858200Y-96977200D01*
X164388800Y-99847400D02*
X164363400Y-99822000D01*
X164363400Y-99822000D02*
X164363400Y-98272600D01*
X164363400Y-98272600D02*
X163322000Y-97231200D01*
X163322000Y-97231200D02*
X161772600Y-97231200D01*
X161772600Y-97231200D02*
X161518600Y-96977200D01*
X158902400Y-93218000D02*
X158902400Y-93751400D01*
X158902400Y-93751400D02*
X158115000Y-94538800D01*
X158115000Y-94538800D02*
X157810200Y-94538800D01*
X157810200Y-94538800D02*
X157276800Y-95072200D01*
X157276800Y-95072200D02*
X157276800Y-97409000D01*
D22*
G36*
X167055585Y-110799670D02*
X167370366Y-111010000D01*
X167055585Y-111220330D01*
X166730729Y-111706511D01*
X166616655Y-112280000D01*
X166648976Y-112442489D01*
X166119755Y-112088875D01*
X165487945Y-111963200D01*
X165423255Y-111963200D01*
X164791445Y-112088875D01*
X164255822Y-112446767D01*
X163897930Y-112982390D01*
X163882633Y-113059291D01*
X163832535Y-113059247D01*
X163507143Y-113193696D01*
X163407615Y-113293051D01*
X163384321Y-113297684D01*
X163157225Y-113449425D01*
X162319025Y-114287625D01*
X162167284Y-114514721D01*
X162138150Y-114661190D01*
X162114000Y-114782600D01*
X162114000Y-115900200D01*
X162167284Y-116168079D01*
X162319025Y-116395175D01*
X163434800Y-117510950D01*
X163434800Y-119010851D01*
X161532800Y-117108850D01*
X161532800Y-114198400D01*
X161489192Y-113979167D01*
X161489353Y-113794535D01*
X161354904Y-113469143D01*
X161106167Y-113219971D01*
X160781010Y-113084954D01*
X160428935Y-113084647D01*
X160103543Y-113219096D01*
X159854371Y-113467833D01*
X159719354Y-113792990D01*
X159719047Y-114145065D01*
X159853496Y-114470457D01*
X160102233Y-114719629D01*
X160132800Y-114732322D01*
X160132800Y-117398800D01*
X160186084Y-117666679D01*
X160337825Y-117893775D01*
X162876000Y-120431949D01*
X162876000Y-122917691D01*
X162826171Y-122967433D01*
X162691154Y-123292590D01*
X162690847Y-123644665D01*
X162825296Y-123970057D01*
X163074033Y-124219229D01*
X163399190Y-124354246D01*
X163751265Y-124354553D01*
X164076657Y-124220104D01*
X164325829Y-123971367D01*
X164460846Y-123646210D01*
X164461153Y-123294135D01*
X164326704Y-122968743D01*
X164276000Y-122917950D01*
X164276000Y-121716196D01*
X164389790Y-121763446D01*
X164741865Y-121763753D01*
X165067257Y-121629304D01*
X165316429Y-121380567D01*
X165451446Y-121055410D01*
X165451753Y-120703335D01*
X165317304Y-120377943D01*
X165068567Y-120128771D01*
X164834800Y-120031702D01*
X164834800Y-117684098D01*
X165125755Y-117804913D01*
X165782563Y-117805486D01*
X166389595Y-117554666D01*
X166624597Y-117320074D01*
X166616655Y-117360000D01*
X166730729Y-117933489D01*
X167055585Y-118419670D01*
X167370366Y-118630000D01*
X167055585Y-118840330D01*
X166730729Y-119326511D01*
X166616655Y-119900000D01*
X166730729Y-120473489D01*
X167055585Y-120959670D01*
X167370366Y-121170000D01*
X167055585Y-121380330D01*
X166730729Y-121866511D01*
X166616655Y-122440000D01*
X166730729Y-123013489D01*
X167055585Y-123499670D01*
X167541766Y-123824526D01*
X168115255Y-123938600D01*
X168484745Y-123938600D01*
X168937750Y-123848492D01*
X168894967Y-123977292D01*
X168558649Y-124365890D01*
X168099222Y-124596205D01*
X167474793Y-124641238D01*
X167474600Y-124641200D01*
X165974600Y-124641200D01*
X165712462Y-124693343D01*
X165490232Y-124841832D01*
X165190864Y-125141200D01*
X155707536Y-125141200D01*
X155408168Y-124841832D01*
X155185938Y-124693343D01*
X154923800Y-124641200D01*
X153509192Y-124641200D01*
X152997308Y-124471167D01*
X152608710Y-124134849D01*
X152541974Y-124001726D01*
X152720155Y-124075713D01*
X153376963Y-124076286D01*
X153983995Y-123825466D01*
X154448834Y-123361437D01*
X154547011Y-123125000D01*
X155019200Y-123125000D01*
X155287079Y-123071716D01*
X155514175Y-122919975D01*
X156229992Y-122204157D01*
X156229995Y-122204155D01*
X156381736Y-121977058D01*
X156418851Y-121790465D01*
X158068047Y-121790465D01*
X158202496Y-122115857D01*
X158451233Y-122365029D01*
X158776390Y-122500046D01*
X159128465Y-122500353D01*
X159453857Y-122365904D01*
X159703029Y-122117167D01*
X159838046Y-121792010D01*
X159838353Y-121439935D01*
X159831000Y-121422139D01*
X159831000Y-121074709D01*
X159880829Y-121024967D01*
X160015846Y-120699810D01*
X160016153Y-120347735D01*
X159881704Y-120022343D01*
X159632967Y-119773171D01*
X159307810Y-119638154D01*
X158955735Y-119637847D01*
X158630343Y-119772296D01*
X158381171Y-120021033D01*
X158246154Y-120346190D01*
X158245847Y-120698265D01*
X158354834Y-120962034D01*
X158203371Y-121113233D01*
X158068354Y-121438390D01*
X158068047Y-121790465D01*
X156418851Y-121790465D01*
X156435020Y-121709180D01*
X156435020Y-118983653D01*
X156475522Y-119010716D01*
X156743400Y-119064000D01*
X157233313Y-119064000D01*
X157409833Y-119240829D01*
X157734990Y-119375846D01*
X158087065Y-119376153D01*
X158412457Y-119241704D01*
X158661629Y-118992967D01*
X158796646Y-118667810D01*
X158796953Y-118315735D01*
X158662504Y-117990343D01*
X158413767Y-117741171D01*
X158088610Y-117606154D01*
X157736535Y-117605847D01*
X157595794Y-117664000D01*
X157240200Y-117664000D01*
X157240200Y-116858309D01*
X157290029Y-116808567D01*
X157408192Y-116524000D01*
X157505400Y-116524000D01*
X157773279Y-116470716D01*
X158000375Y-116318975D01*
X158711575Y-115607775D01*
X158863316Y-115380679D01*
X158916601Y-115112800D01*
X158916600Y-115112795D01*
X158916600Y-111592750D01*
X159700350Y-110809000D01*
X162109891Y-110809000D01*
X162159633Y-110858829D01*
X162484790Y-110993846D01*
X162836865Y-110994153D01*
X162923142Y-110958504D01*
X163100600Y-110994440D01*
X164000600Y-110994440D01*
X164235917Y-110950162D01*
X164452041Y-110811090D01*
X164461668Y-110797000D01*
X164474975Y-110797000D01*
X164652110Y-110918031D01*
X164904000Y-110969040D01*
X165804000Y-110969040D01*
X166039317Y-110924762D01*
X166255441Y-110785690D01*
X166298613Y-110722506D01*
X166319679Y-110718316D01*
X166546775Y-110566575D01*
X166758419Y-110354931D01*
X167055585Y-110799670D01*
X167055585Y-110799670D01*
G37*
X167055585Y-110799670D02*
X167370366Y-111010000D01*
X167055585Y-111220330D01*
X166730729Y-111706511D01*
X166616655Y-112280000D01*
X166648976Y-112442489D01*
X166119755Y-112088875D01*
X165487945Y-111963200D01*
X165423255Y-111963200D01*
X164791445Y-112088875D01*
X164255822Y-112446767D01*
X163897930Y-112982390D01*
X163882633Y-113059291D01*
X163832535Y-113059247D01*
X163507143Y-113193696D01*
X163407615Y-113293051D01*
X163384321Y-113297684D01*
X163157225Y-113449425D01*
X162319025Y-114287625D01*
X162167284Y-114514721D01*
X162138150Y-114661190D01*
X162114000Y-114782600D01*
X162114000Y-115900200D01*
X162167284Y-116168079D01*
X162319025Y-116395175D01*
X163434800Y-117510950D01*
X163434800Y-119010851D01*
X161532800Y-117108850D01*
X161532800Y-114198400D01*
X161489192Y-113979167D01*
X161489353Y-113794535D01*
X161354904Y-113469143D01*
X161106167Y-113219971D01*
X160781010Y-113084954D01*
X160428935Y-113084647D01*
X160103543Y-113219096D01*
X159854371Y-113467833D01*
X159719354Y-113792990D01*
X159719047Y-114145065D01*
X159853496Y-114470457D01*
X160102233Y-114719629D01*
X160132800Y-114732322D01*
X160132800Y-117398800D01*
X160186084Y-117666679D01*
X160337825Y-117893775D01*
X162876000Y-120431949D01*
X162876000Y-122917691D01*
X162826171Y-122967433D01*
X162691154Y-123292590D01*
X162690847Y-123644665D01*
X162825296Y-123970057D01*
X163074033Y-124219229D01*
X163399190Y-124354246D01*
X163751265Y-124354553D01*
X164076657Y-124220104D01*
X164325829Y-123971367D01*
X164460846Y-123646210D01*
X164461153Y-123294135D01*
X164326704Y-122968743D01*
X164276000Y-122917950D01*
X164276000Y-121716196D01*
X164389790Y-121763446D01*
X164741865Y-121763753D01*
X165067257Y-121629304D01*
X165316429Y-121380567D01*
X165451446Y-121055410D01*
X165451753Y-120703335D01*
X165317304Y-120377943D01*
X165068567Y-120128771D01*
X164834800Y-120031702D01*
X164834800Y-117684098D01*
X165125755Y-117804913D01*
X165782563Y-117805486D01*
X166389595Y-117554666D01*
X166624597Y-117320074D01*
X166616655Y-117360000D01*
X166730729Y-117933489D01*
X167055585Y-118419670D01*
X167370366Y-118630000D01*
X167055585Y-118840330D01*
X166730729Y-119326511D01*
X166616655Y-119900000D01*
X166730729Y-120473489D01*
X167055585Y-120959670D01*
X167370366Y-121170000D01*
X167055585Y-121380330D01*
X166730729Y-121866511D01*
X166616655Y-122440000D01*
X166730729Y-123013489D01*
X167055585Y-123499670D01*
X167541766Y-123824526D01*
X168115255Y-123938600D01*
X168484745Y-123938600D01*
X168937750Y-123848492D01*
X168894967Y-123977292D01*
X168558649Y-124365890D01*
X168099222Y-124596205D01*
X167474793Y-124641238D01*
X167474600Y-124641200D01*
X165974600Y-124641200D01*
X165712462Y-124693343D01*
X165490232Y-124841832D01*
X165190864Y-125141200D01*
X155707536Y-125141200D01*
X155408168Y-124841832D01*
X155185938Y-124693343D01*
X154923800Y-124641200D01*
X153509192Y-124641200D01*
X152997308Y-124471167D01*
X152608710Y-124134849D01*
X152541974Y-124001726D01*
X152720155Y-124075713D01*
X153376963Y-124076286D01*
X153983995Y-123825466D01*
X154448834Y-123361437D01*
X154547011Y-123125000D01*
X155019200Y-123125000D01*
X155287079Y-123071716D01*
X155514175Y-122919975D01*
X156229992Y-122204157D01*
X156229995Y-122204155D01*
X156381736Y-121977058D01*
X156418851Y-121790465D01*
X158068047Y-121790465D01*
X158202496Y-122115857D01*
X158451233Y-122365029D01*
X158776390Y-122500046D01*
X159128465Y-122500353D01*
X159453857Y-122365904D01*
X159703029Y-122117167D01*
X159838046Y-121792010D01*
X159838353Y-121439935D01*
X159831000Y-121422139D01*
X159831000Y-121074709D01*
X159880829Y-121024967D01*
X160015846Y-120699810D01*
X160016153Y-120347735D01*
X159881704Y-120022343D01*
X159632967Y-119773171D01*
X159307810Y-119638154D01*
X158955735Y-119637847D01*
X158630343Y-119772296D01*
X158381171Y-120021033D01*
X158246154Y-120346190D01*
X158245847Y-120698265D01*
X158354834Y-120962034D01*
X158203371Y-121113233D01*
X158068354Y-121438390D01*
X158068047Y-121790465D01*
X156418851Y-121790465D01*
X156435020Y-121709180D01*
X156435020Y-118983653D01*
X156475522Y-119010716D01*
X156743400Y-119064000D01*
X157233313Y-119064000D01*
X157409833Y-119240829D01*
X157734990Y-119375846D01*
X158087065Y-119376153D01*
X158412457Y-119241704D01*
X158661629Y-118992967D01*
X158796646Y-118667810D01*
X158796953Y-118315735D01*
X158662504Y-117990343D01*
X158413767Y-117741171D01*
X158088610Y-117606154D01*
X157736535Y-117605847D01*
X157595794Y-117664000D01*
X157240200Y-117664000D01*
X157240200Y-116858309D01*
X157290029Y-116808567D01*
X157408192Y-116524000D01*
X157505400Y-116524000D01*
X157773279Y-116470716D01*
X158000375Y-116318975D01*
X158711575Y-115607775D01*
X158863316Y-115380679D01*
X158916601Y-115112800D01*
X158916600Y-115112795D01*
X158916600Y-111592750D01*
X159700350Y-110809000D01*
X162109891Y-110809000D01*
X162159633Y-110858829D01*
X162484790Y-110993846D01*
X162836865Y-110994153D01*
X162923142Y-110958504D01*
X163100600Y-110994440D01*
X164000600Y-110994440D01*
X164235917Y-110950162D01*
X164452041Y-110811090D01*
X164461668Y-110797000D01*
X164474975Y-110797000D01*
X164652110Y-110918031D01*
X164904000Y-110969040D01*
X165804000Y-110969040D01*
X166039317Y-110924762D01*
X166255441Y-110785690D01*
X166298613Y-110722506D01*
X166319679Y-110718316D01*
X166546775Y-110566575D01*
X166758419Y-110354931D01*
X167055585Y-110799670D01*
G36*
X159289433Y-97727029D02*
X159482547Y-97807217D01*
X159742665Y-98067335D01*
X159974790Y-98222436D01*
X160248600Y-98276900D01*
X162538536Y-98276900D01*
X162596696Y-98417657D01*
X162845433Y-98666829D01*
X163170590Y-98801846D01*
X163522665Y-98802153D01*
X163663400Y-98744003D01*
X163663400Y-99321047D01*
X163638971Y-99345433D01*
X163503954Y-99670590D01*
X163503647Y-100022665D01*
X163638096Y-100348057D01*
X163886833Y-100597229D01*
X164056447Y-100667659D01*
X163862743Y-100747696D01*
X163613571Y-100996433D01*
X163478554Y-101321590D01*
X163478247Y-101673665D01*
X163612696Y-101999057D01*
X163674490Y-102060960D01*
X163335025Y-102400425D01*
X163183284Y-102627521D01*
X163183284Y-102627522D01*
X163130000Y-102895400D01*
X163130000Y-104581221D01*
X163122954Y-104598190D01*
X163122647Y-104950265D01*
X163247599Y-105252672D01*
X163223819Y-105372225D01*
X163206200Y-105460800D01*
X163206200Y-106644050D01*
X163039342Y-106810908D01*
X162968935Y-106810847D01*
X162643543Y-106945296D01*
X162394371Y-107194033D01*
X162259354Y-107519190D01*
X162259047Y-107871265D01*
X162393496Y-108196657D01*
X162468409Y-108271701D01*
X162453160Y-108347000D01*
X162453160Y-108847000D01*
X162497438Y-109082317D01*
X162588567Y-109223936D01*
X162486335Y-109223847D01*
X162160943Y-109358296D01*
X162122171Y-109397000D01*
X161974349Y-109397000D01*
X159457292Y-106879942D01*
X159457353Y-106809535D01*
X159322904Y-106484143D01*
X159074167Y-106234971D01*
X158749010Y-106099954D01*
X158396935Y-106099647D01*
X158071543Y-106234096D01*
X157822371Y-106482833D01*
X157687354Y-106807990D01*
X157687047Y-107160065D01*
X157821496Y-107485457D01*
X158070233Y-107734629D01*
X158395390Y-107869646D01*
X158467159Y-107869709D01*
X160006451Y-109409000D01*
X159410400Y-109409000D01*
X159142521Y-109462284D01*
X158915425Y-109614025D01*
X157721625Y-110807825D01*
X157569884Y-111034921D01*
X157569884Y-111034922D01*
X157516600Y-111302800D01*
X157516600Y-114822850D01*
X157236394Y-115103056D01*
X157212284Y-115044704D01*
X157365513Y-114675688D01*
X157365887Y-114246236D01*
X157201889Y-113849331D01*
X156898486Y-113545398D01*
X156501868Y-113380707D01*
X156072416Y-113380333D01*
X155675511Y-113544331D01*
X155371578Y-113847734D01*
X155274240Y-114082149D01*
X155274240Y-109209647D01*
X155291446Y-109168210D01*
X155291753Y-108816135D01*
X155157304Y-108490743D01*
X154908567Y-108241571D01*
X154583410Y-108106554D01*
X154386816Y-108106383D01*
X154534739Y-107885000D01*
X155527200Y-107885000D01*
X155795079Y-107831716D01*
X156022175Y-107679975D01*
X158092858Y-105609292D01*
X158163265Y-105609353D01*
X158488657Y-105474904D01*
X158737829Y-105226167D01*
X158849555Y-104957100D01*
X159495030Y-104957100D01*
X159947822Y-105409892D01*
X159947647Y-105610665D01*
X160082096Y-105936057D01*
X160330833Y-106185229D01*
X160655990Y-106320246D01*
X161008065Y-106320553D01*
X161333457Y-106186104D01*
X161582629Y-105937367D01*
X161717646Y-105612210D01*
X161717953Y-105260135D01*
X161583504Y-104934743D01*
X161334767Y-104685571D01*
X161185089Y-104623419D01*
X160297335Y-103735665D01*
X160065210Y-103580564D01*
X159791400Y-103526100D01*
X158550450Y-103526100D01*
X158838575Y-103237975D01*
X158990316Y-103010879D01*
X159043601Y-102743000D01*
X159043600Y-102742995D01*
X159043600Y-97825950D01*
X159216041Y-97653509D01*
X159289433Y-97727029D01*
X159289433Y-97727029D01*
G37*
X159289433Y-97727029D02*
X159482547Y-97807217D01*
X159742665Y-98067335D01*
X159974790Y-98222436D01*
X160248600Y-98276900D01*
X162538536Y-98276900D01*
X162596696Y-98417657D01*
X162845433Y-98666829D01*
X163170590Y-98801846D01*
X163522665Y-98802153D01*
X163663400Y-98744003D01*
X163663400Y-99321047D01*
X163638971Y-99345433D01*
X163503954Y-99670590D01*
X163503647Y-100022665D01*
X163638096Y-100348057D01*
X163886833Y-100597229D01*
X164056447Y-100667659D01*
X163862743Y-100747696D01*
X163613571Y-100996433D01*
X163478554Y-101321590D01*
X163478247Y-101673665D01*
X163612696Y-101999057D01*
X163674490Y-102060960D01*
X163335025Y-102400425D01*
X163183284Y-102627521D01*
X163183284Y-102627522D01*
X163130000Y-102895400D01*
X163130000Y-104581221D01*
X163122954Y-104598190D01*
X163122647Y-104950265D01*
X163247599Y-105252672D01*
X163223819Y-105372225D01*
X163206200Y-105460800D01*
X163206200Y-106644050D01*
X163039342Y-106810908D01*
X162968935Y-106810847D01*
X162643543Y-106945296D01*
X162394371Y-107194033D01*
X162259354Y-107519190D01*
X162259047Y-107871265D01*
X162393496Y-108196657D01*
X162468409Y-108271701D01*
X162453160Y-108347000D01*
X162453160Y-108847000D01*
X162497438Y-109082317D01*
X162588567Y-109223936D01*
X162486335Y-109223847D01*
X162160943Y-109358296D01*
X162122171Y-109397000D01*
X161974349Y-109397000D01*
X159457292Y-106879942D01*
X159457353Y-106809535D01*
X159322904Y-106484143D01*
X159074167Y-106234971D01*
X158749010Y-106099954D01*
X158396935Y-106099647D01*
X158071543Y-106234096D01*
X157822371Y-106482833D01*
X157687354Y-106807990D01*
X157687047Y-107160065D01*
X157821496Y-107485457D01*
X158070233Y-107734629D01*
X158395390Y-107869646D01*
X158467159Y-107869709D01*
X160006451Y-109409000D01*
X159410400Y-109409000D01*
X159142521Y-109462284D01*
X158915425Y-109614025D01*
X157721625Y-110807825D01*
X157569884Y-111034921D01*
X157569884Y-111034922D01*
X157516600Y-111302800D01*
X157516600Y-114822850D01*
X157236394Y-115103056D01*
X157212284Y-115044704D01*
X157365513Y-114675688D01*
X157365887Y-114246236D01*
X157201889Y-113849331D01*
X156898486Y-113545398D01*
X156501868Y-113380707D01*
X156072416Y-113380333D01*
X155675511Y-113544331D01*
X155371578Y-113847734D01*
X155274240Y-114082149D01*
X155274240Y-109209647D01*
X155291446Y-109168210D01*
X155291753Y-108816135D01*
X155157304Y-108490743D01*
X154908567Y-108241571D01*
X154583410Y-108106554D01*
X154386816Y-108106383D01*
X154534739Y-107885000D01*
X155527200Y-107885000D01*
X155795079Y-107831716D01*
X156022175Y-107679975D01*
X158092858Y-105609292D01*
X158163265Y-105609353D01*
X158488657Y-105474904D01*
X158737829Y-105226167D01*
X158849555Y-104957100D01*
X159495030Y-104957100D01*
X159947822Y-105409892D01*
X159947647Y-105610665D01*
X160082096Y-105936057D01*
X160330833Y-106185229D01*
X160655990Y-106320246D01*
X161008065Y-106320553D01*
X161333457Y-106186104D01*
X161582629Y-105937367D01*
X161717646Y-105612210D01*
X161717953Y-105260135D01*
X161583504Y-104934743D01*
X161334767Y-104685571D01*
X161185089Y-104623419D01*
X160297335Y-103735665D01*
X160065210Y-103580564D01*
X159791400Y-103526100D01*
X158550450Y-103526100D01*
X158838575Y-103237975D01*
X158990316Y-103010879D01*
X159043601Y-102743000D01*
X159043600Y-102742995D01*
X159043600Y-97825950D01*
X159216041Y-97653509D01*
X159289433Y-97727029D01*
G36*
X157643600Y-102453050D02*
X157367850Y-102728800D01*
X155796509Y-102728800D01*
X155746767Y-102678971D01*
X155421610Y-102543954D01*
X155069535Y-102543647D01*
X154744143Y-102678096D01*
X154494971Y-102926833D01*
X154359954Y-103251990D01*
X154359891Y-103323759D01*
X154176865Y-103506785D01*
X153984931Y-103378539D01*
X154400732Y-103007036D01*
X154654709Y-102479791D01*
X154657358Y-102464026D01*
X154536217Y-102232000D01*
X153177000Y-102232000D01*
X153177000Y-102252000D01*
X152923000Y-102252000D01*
X152923000Y-102232000D01*
X152903000Y-102232000D01*
X152903000Y-101978000D01*
X152923000Y-101978000D01*
X152923000Y-101958000D01*
X153177000Y-101958000D01*
X153177000Y-101978000D01*
X154536217Y-101978000D01*
X154657358Y-101745974D01*
X154654709Y-101730209D01*
X154400732Y-101202964D01*
X153984931Y-100831461D01*
X154294415Y-100624670D01*
X154534739Y-100265000D01*
X154930913Y-100265000D01*
X154946000Y-100268001D01*
X154946005Y-100268000D01*
X155879800Y-100268000D01*
X156147679Y-100214716D01*
X156374775Y-100062975D01*
X157643600Y-98794150D01*
X157643600Y-102453050D01*
X157643600Y-102453050D01*
G37*
X157643600Y-102453050D02*
X157367850Y-102728800D01*
X155796509Y-102728800D01*
X155746767Y-102678971D01*
X155421610Y-102543954D01*
X155069535Y-102543647D01*
X154744143Y-102678096D01*
X154494971Y-102926833D01*
X154359954Y-103251990D01*
X154359891Y-103323759D01*
X154176865Y-103506785D01*
X153984931Y-103378539D01*
X154400732Y-103007036D01*
X154654709Y-102479791D01*
X154657358Y-102464026D01*
X154536217Y-102232000D01*
X153177000Y-102232000D01*
X153177000Y-102252000D01*
X152923000Y-102252000D01*
X152923000Y-102232000D01*
X152903000Y-102232000D01*
X152903000Y-101978000D01*
X152923000Y-101978000D01*
X152923000Y-101958000D01*
X153177000Y-101958000D01*
X153177000Y-101978000D01*
X154536217Y-101978000D01*
X154657358Y-101745974D01*
X154654709Y-101730209D01*
X154400732Y-101202964D01*
X153984931Y-100831461D01*
X154294415Y-100624670D01*
X154534739Y-100265000D01*
X154930913Y-100265000D01*
X154946000Y-100268001D01*
X154946005Y-100268000D01*
X155879800Y-100268000D01*
X156147679Y-100214716D01*
X156374775Y-100062975D01*
X157643600Y-98794150D01*
X157643600Y-102453050D01*
G36*
X168427000Y-96913000D02*
X168447000Y-96913000D01*
X168447000Y-97167000D01*
X168427000Y-97167000D01*
X168427000Y-97187000D01*
X168173000Y-97187000D01*
X168173000Y-97167000D01*
X168153000Y-97167000D01*
X168153000Y-96913000D01*
X168173000Y-96913000D01*
X168173000Y-96893000D01*
X168427000Y-96893000D01*
X168427000Y-96913000D01*
X168427000Y-96913000D01*
G37*
X168427000Y-96913000D02*
X168447000Y-96913000D01*
X168447000Y-97167000D01*
X168427000Y-97167000D01*
X168427000Y-97187000D01*
X168173000Y-97187000D01*
X168173000Y-97167000D01*
X168153000Y-97167000D01*
X168153000Y-96913000D01*
X168173000Y-96913000D01*
X168173000Y-96893000D01*
X168427000Y-96893000D01*
X168427000Y-96913000D01*
G36*
X162897069Y-92074115D02*
X162765000Y-92738071D01*
X162765000Y-93111929D01*
X162867751Y-93628491D01*
X162587935Y-93628247D01*
X162262543Y-93762696D01*
X162211750Y-93813400D01*
X160934400Y-93813400D01*
X160666521Y-93866684D01*
X160439425Y-94018425D01*
X159636975Y-94820875D01*
X159624831Y-94791485D01*
X159238885Y-94404865D01*
X159397375Y-94246375D01*
X159549116Y-94019279D01*
X159597857Y-93774244D01*
X159652229Y-93719967D01*
X159787246Y-93394810D01*
X159787553Y-93042735D01*
X159653104Y-92717343D01*
X159404367Y-92468171D01*
X159079210Y-92333154D01*
X158904427Y-92333002D01*
X158852931Y-92074115D01*
X158759977Y-91935000D01*
X162990023Y-91935000D01*
X162897069Y-92074115D01*
X162897069Y-92074115D01*
G37*
X162897069Y-92074115D02*
X162765000Y-92738071D01*
X162765000Y-93111929D01*
X162867751Y-93628491D01*
X162587935Y-93628247D01*
X162262543Y-93762696D01*
X162211750Y-93813400D01*
X160934400Y-93813400D01*
X160666521Y-93866684D01*
X160439425Y-94018425D01*
X159636975Y-94820875D01*
X159624831Y-94791485D01*
X159238885Y-94404865D01*
X159397375Y-94246375D01*
X159549116Y-94019279D01*
X159597857Y-93774244D01*
X159652229Y-93719967D01*
X159787246Y-93394810D01*
X159787553Y-93042735D01*
X159653104Y-92717343D01*
X159404367Y-92468171D01*
X159079210Y-92333154D01*
X158904427Y-92333002D01*
X158852931Y-92074115D01*
X158759977Y-91935000D01*
X162990023Y-91935000D01*
X162897069Y-92074115D01*
M02*
