M48
;DRILL file {KiCad 4.0.1-stable} date 29-Sep-16 12:15:57 PM
;FORMAT={-:-/ absolute / metric / decimal}
FMAT,2
METRIC,TZ
T1C0.300
T2C0.710
T3C0.720
T4C1.016
%
G90
G05
M71
T1
X153.899Y-105.893
X154.407Y-108.991
X154.94Y-99.085
X154.965Y-104.546
X154.991Y-118.212
X155.245Y-103.429
X156.388Y-115.367
X156.54Y-116.307
X157.201Y-115.011
X157.277Y-97.409
X157.556Y-108.255
X157.912Y-118.491
X157.988Y-104.724
X158.344Y-109.068
X158.572Y-106.985
X158.801Y-116.408
X158.902Y-93.218
X158.953Y-121.615
X159.131Y-120.523
X159.588Y-94.336
X159.791Y-96.977
X159.868Y-107.391
X160.325Y-116.256
X160.35Y-117.577
X160.604Y-113.97
X160.833Y-105.435
X160.858Y-96.977
X161.519Y-96.977
X161.823Y-111.43
X162.662Y-110.109
X162.763Y-94.513
X163.144Y-107.696
X163.246Y-103.53
X163.347Y-97.917
X163.474Y-114.935
X163.576Y-123.469
X164.008Y-104.775
X164.008Y-113.944
X164.033Y-94.564
X164.363Y-101.498
X164.389Y-99.847
X164.567Y-120.879
X164.998Y-97.841
X165.151Y-98.73
X165.989Y-95.86
X166.116Y-94.539
X166.421Y-92.126
X166.929Y-94.031
X166.98Y-103.429
T2
X158.45Y-95.575
X163.3Y-95.575
T4
X153.05Y-94.485
X153.05Y-97.025
X153.05Y-99.565
X153.05Y-102.105
X153.05Y-104.645
X153.05Y-107.185
X153.05Y-109.725
X153.05Y-112.265
X153.05Y-114.805
X153.05Y-117.345
X153.05Y-119.885
X153.05Y-122.425
X165.456Y-103.149
X165.456Y-105.689
X165.456Y-113.614
X165.456Y-116.154
X168.3Y-94.5
X168.3Y-97.04
X168.3Y-99.58
X168.3Y-102.12
X168.3Y-104.66
X168.3Y-107.2
X168.3Y-109.74
X168.3Y-112.28
X168.3Y-114.82
X168.3Y-117.36
X168.3Y-119.9
X168.3Y-122.44
T3
X157.25Y-92.71G85X157.25Y-93.14
G05
X164.5Y-92.71G85X164.5Y-93.14
G05
T0
M30
